<?xml version="1.0" encoding="UTF-8"?>
<svg id="Layer_1" data-name="Layer 1" xmlns="http://www.w3.org/2000/svg" viewBox="0 0 80 80">
  <defs>
    <style>
      .cls-1 {
        fill: #fff;
      }
    </style>
  </defs>
  <path class="cls-1" d="M35.66,33.53c.47,.53,.92,1.06,1.4,1.58,1.78,1.91,4.46,1.88,6.24-.04,1.2-1.3,2.12-2.77,2.83-4.34,.91-2.01,1.74-4.04,2.61-6.07,.33,.03,.67,.06,.55,.52-.09,.31-.18,.61-.26,.92-.23,.56-.46,1.13-.69,1.69-.6,1.51-1.21,3.02-1.81,4.54-.02,.23-.05,.46-.07,.69-.01,.03-.03,.07-.05,.1-.26,.56-.51,1.13-.77,1.68-.17,.36-.08,.63,.27,.83-.14,.04-.28,.09-.42,.13-.02,.15-.1,.4-.06,.42,.17,.08,.38,.09,.73,.16-1.28,.14-1.33,.19-1.25,.95-.13,.22-.26,.44-.38,.67-.46,.14-.86,.19-.84-.34-.73,0-1.4,.04-2.06,0-.92-.06-1-.02-1.05,.87-.05,.23-.13,.46-.15,.69-.06,1.26-.1,2.51-.18,3.77-.01,.17-.23,.33-.35,.49,.04-.17,.08-.34,.12-.51v-.79c-.04-.09-.08-.17-.13-.26-.05-.98-.09-1.96-.15-2.95-.03-.42-.02-.89-.68-.88-.04,0-.09-.14-.13-.21-.31-.54-.7-.58-1.23-.23-.2,.13-.53,.14-.79,.13-.43-.02-.85-.09-1.28-.15-.03,0-.06-.01-.09-.02-.1-.22-.21-.43-.31-.65-.2-.56-.76-.28-1.13-.46,.29-.11,.58-.21,.87-.32h0c-.14-.22-.28-.44-.42-.65,.05-.17,.17-.35,.15-.51-.04-.23-.18-.44-.27-.66-.06-.08-.11-.16-.17-.24,0-.14,0-.27,0-.41,.25,.09,.5,.17,.91,.31,.06-.06,.26-.24,.46-.43h0Z"/>
  <path class="cls-1" d="M28.71,22.98c-1.76-2.21-3.81-4.11-6.28-5.59,.09-.09,.18-.17,.27-.26,1.73,.91,3.13,2.2,4.51,3.51,.45,.49,.9,.98,1.35,1.47l.19-.14c-.46-.58-.93-1.16-1.39-1.74-1.41-1.61-2.89-3.14-4.76-4.29-.11-.07-.2-.17-.3-.26,.09-.09,.18-.17,.28-.26,1.08,.85,2.17,1.67,3.22,2.55,.52,.44,.95,.98,1.42,1.47,.46,.56,.91,1.13,1.37,1.69,.07-.05,.13-.1,.2-.14-.44-.56-.88-1.11-1.31-1.67-.35-.48-.7-.96-1.05-1.44,.08-.04,.17-.09,.25-.13,.44,.5,.87,.99,1.31,1.49,.04-.03,.09-.06,.13-.09-.3-.47-.59-.93-.89-1.4,.05-.13,.09-.26,.13-.39,.06,0,.12,0,.18,0,0,0,.01-.05,0-.06-.37-.59-.75-1.17-1.13-1.76,.09-.05,.18-.09,.27-.14,.19,.22,.37,.44,.62,.74,.02-.18,.03-.25,.05-.33,.05,0,.09,0,.14,0,.3,.73,.61,1.47,.91,2.2,.16,.39,.31,.79,.46,1.19-.04,.18-.16,.39-.11,.55,.19,.69,.44,1.37,.66,2.05,.18,.26,.37,.52,.55,.78,.27,.95,.55,1.9,.83,2.86-.23,.28-.45,.55-.82,.16-.56-.69-1.13-1.39-1.69-2.08,.11-.05,.21-.09,.32-.14,.34,.33,.69,.65,1.03,.98,.05-.05,.1-.1,.15-.14-.35-.41-.7-.82-1.05-1.23h0Z"/>
  <path class="cls-1" d="M29.95,25.59c.37,.39,.59,.12,.82-.16,.22,.53,.45,1.05,.67,1.58-.28-.25-.57-.51-.85-.75,.09,1.07,.3,1.34,1.14,1.39,.36,.72,.75,1.43,1.07,2.17,.15,.34,.17,.73,.25,1.1h-.27c-.41-.34-.82-.69-1.23-1.03-1.52-1.27-3.04-2.53-4.56-3.8,.03-.05,.06-.09,.09-.14,1.17,.52,2.1,1.39,3.12,2.12,.42,.39,.85,.78,1.27,1.17,.06-.06,.13-.12,.19-.18-.44-.43-.87-.85-1.31-1.28-.6-.55-1.21-1.09-1.81-1.64,.06-.1,.11-.21,.17-.31,.47,.36,.94,.71,1.42,1.07l.13-.1c-.15-.2-.29-.42-.47-.61-2.78-2.9-6.02-5.2-9.84-6.71-.19-.07-.36-.18-.54-.27,.05-.09,.11-.18,.16-.27,3.63,1.3,6.78,3.31,9.49,5.97,.26,.26,.59,.46,.88,.69h0Z"/>
  <path class="cls-1" d="M31.44,27.01c-.22-.53-.45-1.05-.67-1.58-.27-.95-.55-1.9-.83-2.86,.12-.58-.08-1.05-.54-1.43-.14-.65-.27-1.3-.41-1.96,.09-.22,.19-.44,.28-.66,.67,1.74,1.34,3.48,2.02,5.22,.34,.98,.62,1.99,1.03,2.95,.66,1.55,1.41,3.08,2.12,4.61,.41,.74,.82,1.48,1.23,2.21-.2,.19-.4,.37-.46,.43-.41-.14-.66-.22-.91-.31-.13-.18-.26-.35-.39-.53h0c0-.14,.04-.33-.04-.43-.33-.43,.05-1.22-.78-1.39,0-.13-.02-.26-.03-.38-.08-.37-.1-.76-.25-1.1-.32-.74-.71-1.45-1.07-2.17-.1-.21-.2-.43-.29-.64h0Zm2.77,4.61c-.08,.05-.16,.1-.24,.16,.19,.24,.37,.48,.56,.72,.07-.04,.13-.09,.2-.13-.17-.25-.34-.5-.52-.74h0Z"/>
  <path class="cls-1" d="M37.7,48.63c-1.25,1.63-2.53,3.23-4.2,4.5-2.83,2.16-6.05,3.05-9.66,2.73-.34-.03-.68-.03-1.02-.08-.21-.03-.41-.14-.62-.22,.02-.07,.03-.13,.05-.2,.23,0,.46-.03,.68,0,2.5,.37,4.93,.14,7.27-.8,2.47-1,4.37-2.69,5.99-4.68,.56-.68,1.01-1.44,1.51-2.16,.17-.18,.34-.35,.52-.53,.06,.09,.12,.18,.18,.27-.23,.39-.47,.77-.7,1.16h0Z"/>
  <path class="cls-1" d="M33.9,41.87c-1.07,.27-2.12,.65-3.2,.79-2.84,.36-5.64,.08-8.41-.58-1.27-.31-2.53-.65-3.8-.98-.41-.13-.81-.27-1.22-.4-.47-.2-.93-.39-1.4-.59,.04-.09,.08-.18,.12-.27,.56,.16,1.12,.32,1.69,.47,.46,.17,.92,.33,1.37,.5,.17,.05,.35,.1,.52,.14,2.27,.47,4.53,1.07,6.83,1.36,2.43,.31,4.88,.07,7.23-.69,.09,.09,.18,.17,.27,.26h0Z"/>
  <path class="cls-1" d="M65.65,7.33c1.5,.02,3,.03,4.5,.05v.14c-1.69,.11-3.36,.23-5.04,.34-1.97,.33-3.8,.96-5.48,2.02-1.9,1.2-3.5,2.68-4.78,4.47-.3,.32-.59,.63-.89,.95-.06,0-.13-.01-.19-.01,.19-.35,.38-.69,.57-1.04,.36-.48,.73-.95,1.09-1.43,2.78-2.89,6.05-4.96,10.21-5.49Z"/>
  <path class="cls-1" d="M26.79,34.98c-4.79-1.45-9.58-2.91-14.37-4.37-.58-.18-1.15-.39-1.73-.59,.06-.09,.12-.18,.17-.27,2.04,.63,4.08,1.28,6.13,1.89,2.76,.83,5.54,1.63,8.3,2.44,.37,.11,.73,.22,1.1,.33,.13,.18,.26,.37,.39,.55h0Z"/>
  <path class="cls-1" d="M25.16,11.41c-.77-.95-1.5-1.94-2.33-2.85-1.73-1.87-3.81-3.23-6.39-3.8-.18-.54,.24-.28,.44-.3,4.24,1.11,6.85,4.05,9.08,7.4,.51,.77,.92,1.59,1.38,2.39-.13,.31-.27,.61-.4,.92-.09-.14-.18-.27-.26-.41-.07-.26-.14-.52-.21-.78-.06-.24-.13-.48-.2-.72-.37-.62-.74-1.24-1.11-1.86h0Z"/>
  <path class="cls-1" d="M23.66,50.36c2.36,.39,4.67,.09,6.91-.65,2.52-.83,4.48-2.43,6.19-4.34,.14-.13,.27-.26,.41-.38,.06,.1,.11,.2,.17,.3-3.73,4.55-8.55,6.37-14.52,5.32,.28-.09,.57-.17,.85-.25h0Z"/>
  <path class="cls-1" d="M31.74,45.26c-1.63,.25-3.25,.71-4.88,.7-3-.02-5.93-.66-8.77-1.62-.21-.07-.39-.21-.58-.32,.02-.07,.05-.13,.07-.2,.22,.04,.45,.08,.67,.13,2.11,.48,4.2,1.09,6.34,1.42,2.28,.35,4.6,.32,6.84-.38,.1,.09,.2,.18,.3,.27h0Z"/>
  <path class="cls-1" d="M37.47,47.61c-1.19,1.59-2.54,3.04-4.21,4.19-1.85,1.28-3.89,2.11-6.17,2.33-.09-.09-.18-.19-.28-.28,.18-.04,.36-.09,.54-.13,3.69-.56,6.54-2.42,8.81-5.18,.29-.36,.58-.72,.87-1.08,.37-.47,.74-.95,1.11-1.42,.09,.05,.18,.09,.27,.14-.31,.48-.63,.96-.94,1.44h0Z"/>
  <path class="cls-1" d="M29.26,32.88c-1.82-.67-3.63-1.37-5.46-2-2.18-.75-4.38-1.43-6.58-2.14-.29-.09-.58-.2-.87-.3,.01-.06,.03-.13,.04-.19,.4,.07,.82,.08,1.2,.21,3.4,1.14,6.8,2.29,10.2,3.45,.72,.25,1.43,.54,2.15,.81,.09,.14,.18,.27,.26,.41-.32-.09-.63-.17-.95-.26h0Z"/>
  <path class="cls-1" d="M31.14,46.93c-2.15,.84-4.42,.82-6.64,.56-1.92-.22-3.8-.78-5.69-1.21-.25-.06-.47-.21-.7-.32,0-.06,.02-.12,.03-.18,.21,0,.44-.05,.63,0,2.23,.67,4.48,1.31,6.84,1.32,1.35,0,2.71-.13,4.06-.21,.36-.02,.72-.06,1.08-.09,.13,.04,.26,.08,.39,.13h0Zm-6.07,.42s0,.04,0,.06h2.91s0-.04,0-.06h-2.92Z"/>
  <path class="cls-1" d="M37.33,45.29c-.06-.1-.11-.2-.17-.3,.18-.26,.36-.53,.53-.79-.08-.05-.16-.11-.24-.16-.28,.31-.57,.63-.85,.94-.3,.23-.61,.45-.91,.68-.06-.06-.11-.12-.17-.18,.63-.65,1.26-1.29,1.89-1.94l.06,.03c.31-.11,.63-.23,.97-.35-.18,.35-.37,.72-.56,1.09,.05,.02,.09,.04,.14,.06,.17-.1,.34-.2,.51-.3-.1,.31-.19,.63-.29,.94,.03,.02,.07,.03,.11,.05,.2-.24,.4-.48,.59-.72,.17,.61-.13,1.04-.57,1.43-.15-.39-.32-.16-.45,0-.36,.46-.71,.93-1.06,1.4-.73,.71-1.46,1.42-2.21,2.12-.18,.17-.43,.26-.65,.39-.05-.05-.09-.1-.14-.15,.12-.13,.24-.25,.36-.38,1.03-1.07,2.07-2.13,3.07-3.22,.14-.15,.52-.41,.03-.64h0Z"/>
  <path class="cls-1" d="M64.04,4.49c-.19,.12-.36,.29-.56,.34-2.72,.72-4.81,2.31-6.61,4.32-.26,.3-.51,.6-.77,.91-.55,.74-1.09,1.48-1.63,2.22-.22,.32-.44,.63-.66,.95-.05-.05-.1-.1-.16-.15,1.96-3.49,4.44-6.5,8.36-8.16,.56-.24,1.16-.38,1.73-.57,.1,.05,.2,.1,.3,.15h0Z"/>
  <path class="cls-1" d="M23.39,49.03c-1.57-.18-3.08-.57-4.56-1.03,.01-.09,.02-.17,.03-.26,.35,.03,.72,.01,1.05,.1,2.43,.68,4.9,1.12,7.44,.92,1.05-.09,2.09-.33,3.14-.51,.14,.09,.28,.18,.43,.26-2.46,.84-4.97,.94-7.52,.52h4.88c-1.02-.13-2.04-.14-3.06-.12-.61,.01-1.21,.08-1.82,.12h0Z"/>
  <path class="cls-1" d="M22.71,12.85c-1.84-1.33-3.81-2.46-6.07-3-1.05-.25-2.14-.35-3.22-.52-.33-.05-.65-.12-1.05-.2,1.3-.75,7.76,.73,10.48,3.41-.05,.1-.09,.2-.14,.3h0Z"/>
  <path class="cls-1" d="M53.65,13.06c.05,.05,.1,.1,.16,.15-.04,.19-.08,.37-.12,.56,.04,.01,.08,.03,.12,.04,.27-.38,.53-.76,.8-1.15,.63-.78,1.27-1.56,1.9-2.34,.64-.56,1.29-1.12,1.93-1.68,.09,.08,.17,.17,.26,.25-1.14,1.21-2.28,2.41-3.43,3.62-.35,.45-.71,.9-1.06,1.35-.32,.48-.63,.96-.95,1.44-.23-.05-.47-.11-.7-.16,.36-.69,.73-1.39,1.09-2.09h0Z"/>
  <path class="cls-1" d="M36.76,51.12c-2.09,2.95-4.78,5.15-8.44,6.12-.36-.03-.34-.19-.15-.4,3.03-.72,5.34-2.48,7.32-4.7,.38-.43,.75-.87,1.12-1.31,.05,.09,.1,.19,.16,.28h0Z"/>
  <path class="cls-1" d="M31.44,31.59c-2.55-1.64-5.24-3.01-8.11-4.07-.23-.08-.42-.24-.63-.37,.19-.05,.37-.09,.56-.14,.74,.32,1.51,.59,2.22,.96,1.86,.94,3.7,1.93,5.55,2.89,.22,.11,.49,.15,.74,.22,.16,.2,.33,.4,.49,.61-.27-.03-.55-.06-.83-.09h0Z"/>
  <path class="cls-1" d="M24.2,35.88c-2.84-.83-5.68-1.66-8.52-2.49-.17-.05-.32-.15-.48-.23,.1-.09,.2-.19,.3-.28,2.66,.79,5.32,1.58,7.99,2.37,.39,.11,.77,.23,1.16,.35-.15,.1-.29,.19-.44,.29h0Z"/>
  <path class="cls-1" d="M7.67,16.95c1.11-.75,10.03,.76,11.01,1.86-.39-.03-.63-.02-.86-.07-1.98-.41-3.96-.87-5.95-1.23-1.03-.19-2.09-.19-3.14-.29-.32-.03-.62-.15-1.07-.26h0Z"/>
  <path class="cls-1" d="M28.17,56.84c-.18,.21-.21,.37,.15,.4-2.27,.59-4.53,.48-6.79-.02-.64-.14-1.29-.26-1.93-.39-.34-.54,.05-.48,.39-.42,.96,.18,1.91,.37,2.86,.58,1.79,.4,3.56,.2,5.33-.16h0Z"/>
  <path class="cls-1" d="M15.45,16.34c-2.59-.33-5.18-.65-7.77-.98,0-.06,0-.12,0-.18,.22-.04,.45-.13,.67-.12,2.65,.15,5.27,.45,7.85,1.06,.15,.04,.28,.13,.42,.2-.39,0-.77,.01-1.16,.02Z"/>
  <path class="cls-1" d="M11.67,10.47c3.53,.15,6.92,.77,9.85,2.84-.06,.06-.13,.13-.19,.19-2.14-1.2-4.43-2.04-6.89-2.4-.42-.06-.85-.09-1.28-.13-.54-.09-1.09-.17-1.63-.26,.05-.08,.1-.16,.15-.24h0Z"/>
  <path class="cls-1" d="M20.79,24.81c-2-.61-3.99-1.23-5.99-1.83-.77-.23-1.55-.42-2.33-.63,.06-.1,.11-.19,.17-.29,2.72,.77,5.45,1.55,8.17,2.33,.24,.07,.46,.19,.68,.28-.23,.05-.46,.09-.69,.14h0Z"/>
  <path class="cls-1" d="M25.02,25.07c-2.62-1.11-5.23-2.23-8.02-3.41,.3-.02,.44-.06,.55-.03,2.75,.85,5.45,1.8,7.89,3.3-.14,.05-.28,.09-.42,.14h0Z"/>
  <path class="cls-1" d="M31.14,46.93c-.13-.04-.26-.08-.39-.13,.23-.13,.44-.29,.69-.38,2.06-.74,3.87-1.83,5.32-3.43,.13-.14,.19-.33,.29-.49l.13-.13s.09,0,.13,0c0,.09,0,.17,0,.26,.36-.13,.72-.25,1.16-.4-.35,.46-.67,.9-.99,1.33l-.06-.03c-.27-.53-.45-.05-.62,.07-1.18,.82-2.32,1.71-3.54,2.47-.63,.39-1.4,.57-2.11,.85h0Z"/>
  <path class="cls-1" d="M15.65,13.05c-2.17-.52-4.37-.6-6.59-.53-.29,0-.59-.04-.89-.07l-.03-.23c.2-.06,.4-.18,.6-.19,2.61-.09,5.2,.05,7.73,.78-.27,.08-.54,.16-.81,.24h0Z"/>
  <path class="cls-1" d="M28.58,23.37c-.11,.05-.21,.09-.32,.14-1.64-1.33-3.23-2.72-4.94-3.96-.93-.67-2.05-1.1-3.08-1.64,.28,0,.57-.02,.85-.02,2.58,1.08,4.7,2.75,6.67,4.63,.24,.23,.48,.46,.73,.68,.03,.06,.06,.11,.09,.17h0Z"/>
  <path class="cls-1" d="M17.18,26.64c3.07,.84,6.03,1.95,8.95,3.19-.04,.1-.07,.21-.11,.31-3.11-1.07-6.22-2.14-9.32-3.21,.16-.1,.32-.19,.48-.29h0Z"/>
  <path class="cls-1" d="M62.21,6.54c1.28-.33,2.55-.82,3.85-.94,1.35-.13,2.74,.08,4.12,.15,.14,0,.27,.09,.41,.3-.24,.02-.49,.1-.72,.06-2.09-.36-4.15-.15-6.19,.35-.32,.08-.67,.07-1.01,.1-.15,0-.31-.01-.46-.02h0Z"/>
  <path class="cls-1" d="M26.27,13.27c.07,.24,.14,.48,.2,.72,.07,.26,.14,.52,.21,.78-.14-.21-.28-.43-.42-.64-.36-.47-.73-.94-1.09-1.42-1.16-1.24-2.31-2.5-3.5-3.71-.35-.36-.83-.6-1.25-.9,.09-.08,.18-.17,.27-.25,1.74,1.01,3.08,2.44,4.35,3.92,.41,.5,.82,1,1.24,1.49h0Z"/>
  <path class="cls-1" d="M18.36,8.63c-1.1-.27-2.18-.66-3.29-.78-1.57-.17-3.16-.14-4.75-.19-.28,0-.55,0-.86-.15,.08-.05,.16-.15,.24-.15,2.73-.25,5.44-.26,8.06,.71,.21,.08,.41,.19,.61,.29,0,.09,0,.18,0,.27h0Z"/>
  <path class="cls-1" d="M19.84,26.11c-2.19-.6-4.37-1.21-6.56-1.81-.45-.13-.9-.27-1.35-.4,.38,0,.77-.01,1.15-.02,2.44,.69,4.88,1.39,7.33,2.09-.19,.05-.38,.1-.57,.14h0Z"/>
  <path class="cls-1" d="M22.69,17.13c-.09,.09-.18,.17-.27,.26-2.39-1.43-5.01-2.32-7.76-2.88,.23-.08,.45-.16,.68-.25,2.5,.43,4.81,1.37,7.01,2.55,.13,.07,.23,.2,.34,.31h0Z"/>
  <path class="cls-1" d="M25.31,62.71c-2.66,.06-5.17-.5-7.55-1.53,.02-.08,.04-.17,.06-.25,1.68,.42,3.36,.84,5.04,1.26,.93,.07,1.87,.14,2.93,.22-.23,.15-.35,.23-.48,.31h0Z"/>
  <path class="cls-1" d="M10.1,18.42c1.96,.36,3.94,.7,5.89,1.1,.95,.19,1.89,.48,2.82,.79,.29,.1,.52,.4,.77,.61-.03,.03-.06,.06-.09,.09-1.5-.41-2.99-.87-4.51-1.21-1.75-.4-3.52-.69-5.28-1.02,.21-.03,.42-.07,.72-.12-.17-.12-.25-.18-.33-.24h0Z"/>
  <path class="cls-1" d="M32.26,31.68c-.16-.2-.33-.4-.49-.61-1.34-.98-2.68-1.97-4.03-2.95-.48-.35-1-.65-1.5-.98h.55c1.5,.96,3.01,1.91,4.51,2.87,.5,.3,.99,.61,1.49,.91h.27c0,.13,.02,.26,.03,.38-.27,.13-.55,.27-.82,.4v-.02s0,0,0,0Z"/>
  <path class="cls-1" d="M11.87,28.43c2.93,1.05,6.06,1.55,8.92,2.79-.04,.11-.07,.22-.11,.33-3.05-.94-6.09-1.87-9.14-2.81,.11-.1,.22-.21,.33-.31Z"/>
  <path class="cls-1" d="M33.9,33.13c.13,.18,.26,.35,.39,.53,0,.14,0,.27,0,.41-.58-.22-1.17-.44-1.75-.66-1.1-.62-2.2-1.25-3.31-1.86-.62-.34-1.27-.66-1.9-.98,.06-.06,.12-.12,.18-.18,1.22,.53,2.44,1.05,3.66,1.58,.92,.53,1.83,1.05,2.75,1.58,.03-.04,.06-.08,.1-.12-.04-.1-.07-.19-.11-.29h0Z"/>
  <path class="cls-1" d="M15.35,14.26c-.23,.08-.45,.16-.68,.25-2.25-.22-4.49-.44-6.74-.65,0-.08,.01-.15,.02-.23,2.49-.1,4.95,.09,7.4,.64Z"/>
  <path class="cls-1" d="M20.95,38.34c-.95-.27-1.9-.53-2.84-.8,.17-.08,.35-.16,.52-.24,1.14,.3,2.27,.59,3.41,.89,.23,.09,.46,.19,.69,.28,.95,.18,1.9,.36,2.85,.54-.32,.08-.65,.17-.97,.25-.77-.17-1.55-.34-2.32-.51-.44-.14-.89-.27-1.33-.41h0Z"/>
  <path class="cls-1" d="M26.81,53.85c.09,.09,.18,.19,.28,.28-1.13,0-2.27,.11-3.38,0-1.28-.13-2.54-.44-3.8-.71-.35-.07-.67-.26-1-.4,.02-.06,.05-.13,.07-.19,1.52,.3,3.04,.6,4.55,.89,1.09,.04,2.18,.09,3.27,.13h0Z"/>
  <path class="cls-1" d="M24.2,35.88c.15-.1,.29-.19,.44-.29,.86,.17,1.72,.35,2.58,.52,1.33,.22,2.66,.43,3.98,.65-.37,.09-.75,.18-1.12,.27-.4-.05-.8-.08-1.2-.15-1.06-.19-2.11-.41-3.16-.61-.37-.09-.73-.18-1.1-.26-.14-.05-.28-.09-.42-.14h0Z"/>
  <path class="cls-1" d="M28.72,25.83c-.06,.1-.11,.21-.17,.31-1.87-1.56-3.92-2.85-6.13-3.92,.07-.06,.14-.13,.21-.19,2.26,.92,4.35,2.11,6.08,3.8Z"/>
  <path class="cls-1" d="M17.53,28.89c-2.85-.8-5.69-1.6-8.53-2.4,.03-.1,.06-.19,.08-.29,3,.27,5.76,1.39,8.61,2.19-.05,.17-.11,.34-.16,.5Z"/>
  <path class="cls-1" d="M27.62,52.41c-.22,0-.45,0-.67,0-1,0-2.01,0-3.01,0-1.72-.08-3.38-.41-4.96-1.04,.02-.07,.03-.15,.05-.22,1.34,.26,2.67,.59,4.03,.75,1.37,.17,2.75,.17,4.13,.24,.14,.09,.29,.18,.43,.27h0Z"/>
  <path class="cls-1" d="M17.25,35.49c-1.96-.47-3.81-1.21-5.67-1.91,.04-.11,.09-.23,.13-.34,2.04,.7,4.07,1.41,6.11,2.11-.19,.05-.38,.09-.56,.14h0Z"/>
  <path class="cls-1" d="M32.1,43.42c1.61-.54,3.11-1.25,4.42-2.3-.03-.07-.06-.14-.09-.22-.26,.06-.52,.12-.77,.17-.04-.08-.09-.17-.13-.25,.27-.18,.54-.35,.81-.53,.09,.09,.18,.18,.28,.27h0c.16,.3,.34,.59,.46,.9,.05,.11-.03,.26-.05,.4h-.14c-.25,.03-.53,0-.75,.09-1.3,.56-2.59,1.16-3.89,1.74-.05-.09-.1-.18-.16-.27h0Z"/>
  <path class="cls-1" d="M22.71,12.85c.05-.1,.09-.2,.14-.3,.9,.83,1.8,1.67,2.7,2.5,.6,.77,1.2,1.55,1.8,2.32-.05,.13-.09,.26-.13,.39-.19-.21-.38-.42-.57-.63-1.02-1.67-2.52-2.95-3.94-4.28h0Z"/>
  <path class="cls-1" d="M36.89,41.86h.14c.05,.17,.09,.34,.14,.52l-.13,.13c-.9,.56-1.78,1.18-2.72,1.67-.82,.43-1.72,.73-2.58,1.09-.1-.09-.2-.18-.3-.27,2.05-.67,3.9-1.66,5.45-3.13h0Z"/>
  <path class="cls-1" d="M27.62,52.41c-.14-.09-.29-.18-.43-.27,1.84-.36,3.66-.79,5.28-1.76,.14-.08,.32-.09,.52-.03-1.57,1.21-3.37,1.86-5.37,2.07h0Z"/>
  <path class="cls-1" d="M16.88,4.46c-.21,.02-.62-.23-.44,.3-2.17-.62-4.38-.51-6.61-.17-.01-.1-.02-.2-.03-.3,.37-.1,.74-.27,1.11-.29,1.83-.09,3.67-.2,5.48,.25,.17,.04,.33,.14,.49,.21h0Zm-2.22-.27s0-.05,0-.07h-3.23s0,.05,0,.07h3.24Z"/>
  <path class="cls-1" d="M14.88,6.04c-1.53-.03-3.05-.06-4.58-.1,0-.06,0-.13-.01-.19,.09-.05,.18-.13,.27-.14,1.82-.17,3.62-.19,5.4,.28,.08,.02,.15,.09,.23,.14-.44,0-.88,0-1.31,.01h0Z"/>
  <path class="cls-1" d="M21.32,13.5c.06-.06,.13-.13,.19-.19,1.18,.52,2.17,1.28,3.05,2.19,.61,.63,1.22,1.26,1.82,1.88,.09,.13,.19,.25,.28,.38-.08,.04-.17,.09-.25,.13-1.5-1.67-3.15-3.19-5.1-4.39h0Z"/>
  <path class="cls-1" d="M30.61,35.87c-.35-.05-.71-.09-1.06-.14-.65-.17-1.3-.34-1.94-.52-.27-.07-.55-.16-.82-.24-.13-.18-.26-.37-.39-.55,.36,.04,.73,.09,1.09,.13,1.27,.35,2.54,.7,3.81,1.05-.23,.09-.46,.17-.69,.26Z"/>
  <path class="cls-1" d="M18.36,8.63c0-.09,0-.18,0-.27,1.51,.41,2.74,1.28,3.95,2.18,.39,.29,.73,.64,1.09,.97-.05,.09-.1,.18-.14,.27-1.5-1.24-3.1-2.33-4.9-3.15h0Z"/>
  <path class="cls-1" d="M20.54,42.89c2.24,.38,4.49,.74,6.73,1.14,.4,.07,.76,.28,1.13,.43-1.24-.08-2.51-.09-3.73-.27-1.62-.24-3.22-.62-4.82-.94,.23-.12,.46-.24,.69-.36Z"/>
  <path class="cls-1" d="M18.9,39.53c-1.38-.48-2.76-.96-4.14-1.44,.04-.12,.08-.23,.13-.35,1.61,.51,3.22,1.02,4.83,1.54-.05,.09-.09,.18-.14,.28-.22,0-.44-.02-.67-.03h0Z"/>
  <path class="cls-1" d="M13.08,23.88c-.38,0-.77,.01-1.15,.02-1.45-.3-2.9-.59-4.34-.89,.47-.37,4.12,.33,5.49,.87h0Z"/>
  <path class="cls-1" d="M30.99,48.52c-.17-.12-.33-.23-.5-.35,1.73-.97,3.46-1.94,5.19-2.9,.05-.03,.15,.03,.42,.1-1.63,1.4-3.25,2.49-5.11,3.14h0Z"/>
  <path class="cls-1" d="M12.63,22.06c-.06,.1-.11,.19-.17,.29-1.64-.26-3.27-.55-4.87-1.03,1.73-.03,3.38,.35,5.03,.74h0Z"/>
  <path class="cls-1" d="M25.27,32.9c-1.62-.49-3.24-.97-4.86-1.46,.04-.12,.08-.24,.12-.36,1.65,.47,3.3,.96,4.92,1.53-.06,.1-.12,.19-.18,.29h0Z"/>
  <path class="cls-1" d="M15.49,32.88c-.1,.09-.2,.19-.3,.28-1.56-.53-3.12-1.06-4.67-1.59-.07-.02-.11-.11-.16-.17,.03-.06,.06-.13,.09-.19,1.68,.56,3.36,1.12,5.04,1.68h0Z"/>
  <path class="cls-1" d="M23.66,50.36c-.28,.09-.57,.17-.85,.25-1.37-.21-2.76-.39-4-1.03,.02-.07,.03-.13,.05-.2,1.6,.33,3.2,.65,4.8,.98h0Z"/>
  <path class="cls-1" d="M64.04,4.49c-.1-.05-.2-.1-.3-.15,2.05-.57,5.61-.57,6.57,.14-1.03-.05-2.06-.14-3.09-.13-1.06,0-2.12,.1-3.18,.15h0Zm4.88-.31v-.07h-3.27v.07h3.27Z"/>
  <path class="cls-1" d="M21.09,17.89c-.28,0-.57,.01-.85,.02-1.6-.52-3.19-1.05-4.79-1.58,.39,0,.77-.01,1.16-.02,1.49,.52,2.98,1.05,4.48,1.57Z"/>
  <path class="cls-1" d="M17.25,35.49c.19-.05,.38-.09,.56-.14,1.09,.3,2.17,.59,3.25,.89,.61,.17,1.21,.35,1.81,.53-.63-.01-1.25-.03-1.88-.04-1.05-.32-2.1-.64-3.15-.97-.21-.07-.4-.18-.6-.28h0Z"/>
  <path class="cls-1" d="M52.56,15.15c.23,.05,.47,.11,.7,.16,0,.12,0,.24,0,.36-.49,.55-1.02,1.08-1.08,1.86-.05,.04-.09,.07-.14,.11-.23-.39-.4-.14-.51,.07-.22,.4-.4,.81-.6,1.22-.04,0-.07,0-.11,0,0-.04-.01-.09-.02-.13,.58-1.22,1.17-2.44,1.75-3.66h0Z"/>
  <path class="cls-1" d="M36.76,51.12c-.05-.09-.1-.19-.16-.28,.42-.64,.83-1.29,1.25-1.93,.37-.58,.74-1.17,1.11-1.75-.06-.03-.12-.07-.18-.11-.13,.14-.26,.28-.38,.42-.06-.09-.12-.18-.18-.27,.14-.38,.27-.76,.41-1.14,.06,0,.11-.02,.17-.03,.13,.49,.26,.98,.39,1.46-.77,1.2-1.54,2.4-2.31,3.6-.04,0-.08,.02-.12,.03h0Z"/>
  <path class="cls-1" d="M29.27,18.54c-.09,.22-.19,.44-.28,.66-.05,0-.1,0-.15,0-.15-.4-.3-.8-.46-1.19-.3-.74-.61-1.47-.91-2.2,.23,.09,.47,.17,.71,.26l1.09,2.47h0Z"/>
  <path class="cls-1" d="M10.21,24.66c1.58,.47,3.17,.93,4.75,1.4-.03,.13-.05,.26-.08,.38-2.08,0-3.97-1.04-5.96-1.56,.43-.07,.86-.15,1.29-.22Z"/>
  <path class="cls-1" d="M23.25,11.78c.05-.09,.1-.18,.14-.27,.54,.53,1.08,1.05,1.62,1.58,.36,.48,.73,.96,1.09,1.45l.56,.87c-.09,.05-.18,.09-.27,.14-.19-.22-.37-.43-.56-.65-.86-1.04-1.73-2.08-2.6-3.12h0Z"/>
  <path class="cls-1" d="M62.21,6.54c.15,0,.31,.01,.46,.02-.22,.14-.44,.29-.67,.43-1.1,.64-2.21,1.27-3.31,1.91-.09-.08-.17-.17-.26-.25,1.12-.93,2.37-1.65,3.78-2.11h0Z"/>
  <path class="cls-1" d="M25.31,62.71c.13-.08,.25-.16,.48-.31-1.06-.08-2-.15-2.93-.22,1.05,0,2.09,0,3.14,0,.5-.08,1.01-.17,1.51-.25,.31-.05,.63-.1,.94-.15,.23,.05,.47,.1,.7,.14-.37,.13-.73,.26-1.1,.39-.41,.05-.82,.09-1.24,.14-.5,.08-.99,.17-1.49,.25h0Z"/>
  <path class="cls-1" d="M22.97,60.89c-.86-.17-1.72-.35-2.58-.52,.1-.09,.19-.18,.28-.27,.68,.09,1.36,.18,2.04,.28,.46,0,.92-.01,1.37-.02,.19,.13,.39,.25,.58,.38-.56,.05-1.13,.1-1.7,.15h0Z"/>
  <path class="cls-1" d="M11.26,20.38c.75,.06,1.5,.08,2.24,.19,.59,.09,1.17,.28,1.75,.43-.19,.09-.39,.17-.58,.26-1.14-.26-2.27-.52-3.41-.77,0-.04,0-.07,0-.11Z"/>
  <path class="cls-1" d="M34.45,34.3c.1,.22,.24,.43,.27,.66,.03,.16-.09,.34-.15,.51v-.13c-.17-.2-.3-.48-.52-.57-.95-.41-1.92-.77-2.88-1.15,.15-.08,.3-.16,.45-.24,.3,.05,.61,.11,.91,.16,.64,.25,1.28,.51,1.92,.76h0Z"/>
  <path class="cls-1" d="M25.52,44.07c1.06-.04,2.13-.08,3.2-.11,.28,.09,.56,.18,.85,.27-1.17,.03-2.33,.07-3.5,.08-.18,0-.36-.15-.54-.24h0Z"/>
  <path class="cls-1" d="M21,36.73c.63,.01,1.25,.03,1.88,.04,.35,.08,.71,.17,1.06,.25,.19,.09,.38,.17,.56,.26,.36,.05,.71,.11,1.07,.16-.18,.09-.37,.17-.55,.26-.22-.05-.44-.1-.66-.14-.37-.08-.74-.17-1.11-.25-.75-.19-1.5-.39-2.25-.58h0Z"/>
  <path class="cls-1" d="M49.42,22.71c.08-.09,.15-.17,.23-.26,.07,0,.15,0,.22-.01,.07,.23,.2,.46,.19,.68-.03,.38-.14,.76-.22,1.13-.39-.01-.79-.02-.83-.53,.14-.34,.28-.68,.41-1.02h0Z"/>
  <path class="cls-1" d="M20.3,42.89c-.15,.09-.3,.18-.44,.27-1-.34-2.01-.69-3.01-1.03,.14-.09,.28-.18,.41-.26,1.01,.34,2.03,.68,3.04,1.02h0Z"/>
  <path class="cls-1" d="M22.04,15.4c-1.55-.59-3.09-1.19-4.64-1.78,.14-.14,.27-.29,.41-.43,1.25,.5,2.51,.99,3.74,1.53,.22,.1,.32,.46,.48,.7h0s0-.01,0-.01Z"/>
  <path class="cls-1" d="M25.27,32.9c.06-.1,.12-.19,.18-.29,1,.31,2,.61,3,.92,.05,.09,.09,.17,.14,.26-.06,.05-.11,.1-.17,.16-.99-.27-1.97-.55-2.96-.82-.06-.07-.12-.14-.18-.22h0Z"/>
  <path class="cls-1" d="M11.83,28.43c-.1,.09-.2,.18-.29,.28-.91-.28-1.89-.4-2.67-1.01,1.05,.05,2.02,.35,2.96,.73h0Z"/>
  <path class="cls-1" d="M29.56,44.23c-.28-.09-.56-.18-.85-.27,1.13-.18,2.26-.36,3.39-.54,.05,.09,.1,.18,.16,.27-.9,.18-1.8,.36-2.7,.54h0Z"/>
  <path class="cls-1" d="M26.18,26.81c-.47-.1-.94-.2-1.41-.29-1.49-.69-2.97-1.38-4.46-2.07,.1-.05,.2-.1,.3-.14,2.08,.69,3.76,1.64,5.57,2.5h0Z"/>
  <path class="cls-1" d="M19.84,26.11c.19-.05,.38-.1,.57-.14,.95,.35,1.9,.7,2.85,1.05-.19,.05-.37,.09-.56,.14-.95-.35-1.91-.69-2.86-1.04h0Z"/>
  <path class="cls-1" d="M18.63,37.3c-.17,.08-.35,.16-.52,.24-.88-.29-1.76-.58-2.64-.88,.14-.08,.29-.17,.43-.25,.91,.3,1.82,.59,2.74,.89h0Z"/>
  <path class="cls-1" d="M14.88,6.04c.44,0,.88,0,1.31-.01,.94,.31,1.88,.62,2.83,.93-.15,.05-.29,.09-.44,.14-1.23-.35-2.47-.71-3.7-1.06Z"/>
  <path class="cls-1" d="M15.89,36.41c-.14,.08-.28,.17-.43,.25-.73-.27-1.47-.54-2.21-.81,.03-.09,.07-.17,.1-.26,.92,.04,1.7,.51,2.53,.82h0Z"/>
  <path class="cls-1" d="M18.89,57.78c.5,.08,1,.17,1.49,.25,.27,.09,.54,.17,.81,.26,0,.04,.01,.08,.02,.12-.16,.15-.83-.37-.53,.37-.79-.26-1.58-.51-2.38-.76,.02-.08,.03-.16,.05-.24h.53Z"/>
  <path class="cls-1" d="M11.52,10.71c.54,.09,1.09,.17,1.63,.26h-4.67c0-.13-.01-.25-.02-.38,.48-.04,.96-.08,1.44-.12,.54,.08,1.08,.16,1.62,.24h0Z"/>
  <path class="cls-1" d="M28.18,16.06c-.23-.09-.47-.17-.71-.26-.05,0-.09,0-.14,0-.13-.21-.27-.43-.4-.64,.13-.31,.27-.61,.4-.92,.28,.6,.56,1.21,.84,1.81h0Z"/>
  <path class="cls-1" d="M17.13,26.64c-.14,.08-.29,.17-.43,.25-.81-.24-1.62-.47-2.44-.71l.05-.19c.98,0,1.89,.37,2.82,.65h0Z"/>
  <path class="cls-1" d="M22.64,22.03c-.07,.06-.14,.13-.21,.19-.95-.4-1.89-.81-2.84-1.21,.14-.09,.28-.17,.42-.26,.88,.43,1.76,.85,2.64,1.28h0Z"/>
  <path class="cls-1" d="M10.05,18.42c.07,.05,.14,.09,.28,.19-.26,.04-.44,.07-.62,.09-.68-.08-1.36-.16-2.04-.23l.03-.23c.8-.29,1.57,.1,2.36,.18h0Z"/>
  <path class="cls-1" d="M20.67,60.1c-.1,.09-.19,.18-.28,.27-.75-.26-1.5-.51-2.25-.77,.02-.06,.04-.13,.06-.19,.88,0,1.65,.45,2.47,.69h0Z"/>
  <path class="cls-1" d="M14.66,9.21c-1.78,.05-3.56,.1-5.79,.17,1.33-.55,3.59-.63,5.76-.35,0,.06,.02,.12,.02,.18Z"/>
  <path class="cls-1" d="M26.79,27.15h-.55c-.52-.21-1.05-.42-1.57-.63,.03-.08,.07-.17,.11-.25,.79-.01,1.39,.47,2.01,.88h0Z"/>
  <path class="cls-1" d="M9.49,20.24c-.63-.09-1.27-.18-1.9-.27,.01-.08,.02-.16,.03-.25,.78-.13,1.54,.02,2.31,.23-.15,.09-.29,.19-.44,.28h0Z"/>
  <path class="cls-1" d="M22.58,15.42c-.09,.09-.18,.17-.28,.26-.54-.35-1.09-.7-1.63-1.05h0c.78-.05,1.35,.35,1.91,.79h0Z"/>
  <path class="cls-1" d="M19.21,54.63c1.39,.26,2.78,.53,4.17,.79l-.31,.34c-1.37-.28-2.75-.56-4.12-.84,.09-.1,.18-.19,.27-.29h0Z"/>
  <path class="cls-1" d="M26.81,53.85c-1.09-.04-2.18-.09-3.27-.13h3.81c-.18,.04-.36,.09-.54,.13h0Z"/>
  <path class="cls-1" d="M20.26,39.25c.32,.13,.64,.27,.95,.4,.05,.04,.11,.07,.16,.11-.19,.1-.39,.19-.58,.29-.31-.05-.62-.09-.93-.13-.1-.12-.2-.24-.29-.37,.05-.09,.09-.18,.14-.28,.18,0,.37-.02,.55-.03h0Z"/>
  <path class="cls-1" d="M17.69,13.18c-.1,.09-.19,.19-.29,.28-.59-.14-1.17-.28-1.76-.42,.27-.08,.54-.16,.81-.24,.41,.12,.82,.25,1.23,.37h0Z"/>
  <path class="cls-1" d="M18.58,7.1c.15-.05,.29-.09,.44-.14,.55,.3,1.11,.6,1.66,.89-.09,.08-.18,.17-.27,.25-.61-.33-1.22-.67-1.83-1h0Z"/>
  <path class="cls-1" d="M19.58,18.94c-.05,.09-.11,.18-.16,.27-.53-.17-1.06-.34-1.58-.5,.04-.1,.07-.2,.11-.31,.55,.18,1.09,.36,1.64,.54h0Z"/>
  <path class="cls-1" d="M20,20.75c-.14,.09-.28,.17-.42,.26-.5-.18-1-.36-1.49-.54,.02-.03,.05-.05,.08-.07,.7-.31,1.24,.15,1.83,.35Z"/>
  <path class="cls-1" d="M27.5,30.38c-.06,.06-.12,.12-.18,.18-.48-.17-.96-.34-1.45-.51,.05-.11,.09-.22,.14-.33,.5,.22,.99,.44,1.49,.66h0Z"/>
  <path class="cls-1" d="M30.49,33.39c-.09-.09-.19-.17-.28-.26-.09-.14-.18-.27-.26-.41,.56,.22,1.12,.44,1.67,.66-.15,.08-.3,.16-.45,.24-.23-.08-.45-.15-.68-.23h0Z"/>
  <path class="cls-1" d="M9.93,24.66c-.33,.05-.67,.1-1,.15-.29-.07-.58-.15-.88-.22,.01-.08,.03-.15,.04-.23,.64-.17,1.23,.18,1.84,.31h0Z"/>
  <path class="cls-1" d="M12.72,20.82c.66,.01,1.32,.03,1.98,.04,1.17,.31,2.33,.61,3.5,.92-.11,.07-.22,.15-.33,.22-1.72-.39-3.43-.78-5.15-1.17h0Z"/>
  <path class="cls-1" d="M20.68,58.78c-.29-.74,.38-.22,.53-.37,.09,.04,.19,.08,.28,.13,.13,.07,.26,.13,.46,.23-.15,.07-.24,.12-.33,.17-.14,0-.27,0-.41,0-.18-.05-.36-.1-.53-.15h0Z"/>
  <path class="cls-1" d="M25.33,61.02c-.28,0-.57,0-.85,0-.5-.05-1.01-.09-1.51-.14,.56-.05,1.13-.1,1.69-.15h.05c.57,.06,1.15,.11,1.72,.17-.37,.04-.74,.08-1.11,.12h0Z"/>
  <path class="cls-1" d="M49.01,23.73c.04,.51,.44,.52,.83,.53-.09,.31-.17,.62-.26,.93-.09,0-.19,0-.28,0,.12-.47-.22-.49-.55-.52,.09-.31,.18-.62,.27-.94h0Z"/>
  <path class="cls-1" d="M23.94,52.42c1,0,2.01,0,3.01,0-1,0-2.01,0-3.01,0Z"/>
  <path class="cls-1" d="M24.72,24.92c.37-.01,.74-.02,1.11-.03,.84,.55,1.68,1.09,2.52,1.64-.13,.1-.26,.2-.39,.3-1.08-.64-2.16-1.27-3.24-1.91h0Z"/>
  <path class="cls-1" d="M10.86,29.76c-.06,.09-.12,.18-.17,.27-.41-.15-.82-.29-1.22-.44,.03-.09,.07-.17,.11-.25,.43,.14,.86,.29,1.29,.43h0Z"/>
  <path class="cls-1" d="M9.49,20.24c.15-.09,.29-.19,.44-.28,.44,.14,.89,.28,1.33,.42,0,.04,0,.07,0,.11-.59-.09-1.18-.17-1.77-.25Z"/>
  <path class="cls-1" d="M11.52,10.71c-.54-.08-1.08-.16-1.62-.24,.59,0,1.17,0,1.76,0-.05,.08-.1,.16-.15,.24h0Z"/>
  <path class="cls-1" d="M38.94,44.34c-.2,.24-.4,.48-.59,.72-.03-.02-.07-.03-.11-.05,.1-.31,.19-.63,.29-.94h0c.24-.24,.49-.49,.73-.74,.01,.05,.03,.1,.04,.14,.2-.02,.4-.04,.61-.06,.12-.16,.34-.32,.35-.49,.08-1.25,.11-2.51,.18-3.77,.01-.23,.1-.46,.15-.69h.99c.05,.19,.13,.47,.27,.97,.25-1.01,.67-.2,1.03-.35,.03-.15,.06-.32,.11-.61,.32,.18,.55,.31,.83,.47-.27,.19-.42,.29-.65,.46,.35,.16,.59,.27,.83,.37-.05,.17-.11,.35-.16,.52-.13,.35-.26,.69-.39,1.04-.71-.54-1.42-1.07-2.21-1.67,.08,.16,.11,.24,.15,.31,.41,.68,1.43,1.05,1.18,2.09-.02,.07,.21,.2,.33,.3,.05,.04,.1,.09,.15,.13,0,.04,0,.07,0,.11-.18,.09-.37,.19-.54,.28,.04,.32,.07,.61,.1,.9-.04,.06-.08,.11-.11,.17,0,.12-.01,.24-.02,.36-.08,.09-.17,.19-.25,.28v-.02c-.29,.06-.58,.11-.94,.18,.19,.34,.36,.66,.54,.98,.04,.05,.08,.09,.12,.13-.63,.41-.84,.92-.59,1.45-.04,.09-.08,.19-.12,.28-.09-.02-.18-.03-.27-.05-.18,.4-.35,.79-.53,1.19-.26-.04-.52-.09-.79-.13-.02,0-.04,.02-.06,.03-.02-.22-.03-.44-.05-.67,.03-.09,.06-.18,.09-.27,.5-.14,1.01-.26,.39-.87-.06-.05-.02-.21,0-.31,.05-.24,.17-.48,.15-.72-.04-.45-.13-.9-.25-1.33-.05-.2-.22-.36-.34-.55-.21,.13-.43,.26-.64,.39h0Zm2.92,.13c.46-.93,.17-1.76-.77-2.43-.25,.93,.03,1.7,.77,2.43Zm.19-1.85c.06-.04,.11-.09,.17-.13-.26-.34-.52-.69-.78-1.03-.06,.04-.12,.08-.18,.13,.26,.35,.53,.69,.79,1.04h0Z"/>
  <path class="cls-1" d="M43.44,41.35c.13-.35,.26-.69,.39-1.04,.05,0,.1,0,.15,0,2.24,1.34,4.67,2.1,7.32,2.06,1.47-.02,2.93-.15,4.4-.24-.12,.49,.32,.17,.46,.28-4.25,.74-8.38,.58-12.33-1.68,.19,.8,2.13,1.99,3.69,2.45-.1,.09-.2,.18-.3,.27-.9-.42-1.8-.85-2.7-1.26-.39-.18-.8-.35-1.2-.53,.04-.1,.08-.2,.12-.31h0Z"/>
  <path class="cls-1" d="M41.35,47.35c-.25-.52-.03-1.04,.59-1.45,.58,.73,1.16,1.46,1.75,2.18,.11,.3,.29,.73,.6,1.21,.09,.14,.17,.26,.16,.26-.02,.02-.35-.34-1.71-1.94-.29-.46-.57-.91-.86-1.36-.09,.05-.18,.11-.28,.16,.34,.52,.68,1.04,1.02,1.57,1.42,1.97,2.93,3.87,5.02,5.25,.71,.47,1.47,.85,2.2,1.28,.05,.14,.09,.27,.14,.41-.97-.53-2.01-.98-2.9-1.61,0,0-2.18-1.53-3.77-3.72-.06-.09-.2-.28-.29-.41-.64-.91-1.16-1.66-1.52-2.2-.05,.03-.1,.05-.15,.08,0,.1,0,.2,.01,.3h0Z"/>
  <path class="cls-1" d="M49.7,58.02c-1.99-.9-3.54-2.3-4.96-3.87-.4-.44-.78-.9-1.17-1.35-.46-.74-.92-1.47-1.38-2.21-.36-.65-.71-1.31-1.07-1.97,0-.09,0-.19,0-.28,.32,.48,.63,.97,.95,1.46,.41,.57,.81,1.14,1.22,1.71,1.37,2.14,3.1,3.97,5.25,5.42,.48,.32,.97,.62,1.46,.94-.1,.05-.2,.1-.3,.15h0Z"/>
  <path class="cls-1" d="M57.89,50.6c-4.12,.78-7.98,.31-11.47-2.08,.1-.09,.19-.18,.29-.27,1.51,.88,3.06,1.7,4.85,1.9,1.29,.15,2.6,.19,3.9,.26,.36,.02,.72-.03,1.08-.05,.45,.08,.9,.16,1.35,.24h0Z"/>
  <path class="cls-1" d="M57.43,36.75c.79-.21,1.58-.42,2.37-.64,.42-.17,.84-.33,1.26-.49,.03,0,.07,0,.1,0,.6-.17,1.2-.35,1.8-.52,1.67-.57,3.34-1.13,5.01-1.7,.22,.08,.44,.16,.65,.24-3.11,1.02-6.21,2.04-9.32,3.06-.32,.1-.66,.15-.99,.23-.3-.06-.59-.11-.88-.17h0Z"/>
  <path class="cls-1" d="M51.47,49.03l-2.19-.52c.23-.08,.46-.16,.68-.25,3.79,1.11,7.52,.31,11.24-.54,.02,.09,.04,.18,.06,.27-.2,.09-.4,.2-.62,.26-2.85,.8-5.74,1.28-8.72,.88-.16-.02-.31-.07-.46-.1h4.88c-1.07-.13-2.13-.14-3.2-.12-.56,.01-1.12,.08-1.68,.12h0Z"/>
  <path class="cls-1" d="M43.71,55.02c1.52,2.52,3.7,4.21,4.46,4.87,.48,.42,1.29,1.1,1.26,1.14-.02,.03-.45-.27-.82-.53,0,0,0,0,0,0,.06-.05,.29,.07,1.12,.85-1.01-.59-2.11-1.35-3.21-2.33-3.01-2.66-4.59-5.64-5.42-7.64,0-.1,0-.19,0-.29,.26,.31,.53,.63,.79,.94,.6,.99,1.2,1.99,1.8,2.98h0Z"/>
  <path class="cls-1" d="M43.43,53.21c.92,1.12,1.8,2.28,2.77,3.36,.56,.62,1.26,1.12,1.89,1.67,.24,.2,.47,.41,.61,.71-2.02-1.04-3.45-2.66-4.84-4.34-.56-.9-1.13-1.79-1.69-2.69-.31-.52-.62-1.05-.93-1.58,.05-.05,.11-.1,.16-.15,.17,.18,.34,.36,.51,.54,.5,.83,1,1.66,1.51,2.48h0Z"/>
  <path class="cls-1" d="M51.61,53.47c3.26,.6,6.47,.31,9.62-.73,.02,.08,.05,.16,.07,.23-.13,.09-.24,.2-.39,.25-2.97,.99-6,1.34-9.11,.73-.22-.04-.43-.14-.64-.22,.15-.09,.29-.18,.44-.27Z"/>
  <path class="cls-1" d="M59.96,60.38c-5.12,1.25-8.33,.33-10.25-.68-.09-.05-.17-.09-.26-.14-.22-.12-.44-.26-.67-.42-.46-.32-.85-.65-1.18-.96-.33-.36-.38-.46-.36-.49,.09-.09,1.15,.88,2.68,1.64,.32,.16,1.18,.56,2.29,.84,2.18,.56,4.42,.5,6.7,0,.2-.04,.4-.05,.61-.07,.15,.09,.29,.18,.44,.27h0Z"/>
  <path class="cls-1" d="M51.86,57.12c-1.85-.29-3.43-1.16-4.8-2.3-1.26-1.04-2.32-2.29-3.47-3.45-.01-.08-.02-.15-.03-.23,.09-.05,.18-.1,.27-.15,1.87,2.32,3.96,4.38,6.91,5.44,.46,.17,.95,.28,1.42,.42,.19,.38-.11,.27-.3,.27h0Z"/>
  <path class="cls-1" d="M56.43,39.01c-1.38,.26-2.74,.66-4.13,.74-2.42,.14-4.86,.25-7.22-.48-.1-.09-.21-.19-.31-.28-.27-.23-.67-.45-.12-.8,.01,.02,.02,.04,.04,.06-.23,.46,.16,.55,.45,.6,1.33,.24,2.67,.62,4.01,.61,2-.01,4-.3,6.01-.48,.43,0,.86,.01,1.29,.02h0Z"/>
  <path class="cls-1" d="M51.61,53.47c-.15,.09-.29,.18-.44,.27-3.18-.81-5.52-2.74-7.54-5.08,.05-.07,.11-.14,.16-.21,.25,.21,.52,.39,.74,.62,1.77,1.93,3.86,3.41,6.42,4.22,.22,.07,.43,.12,.65,.18h0Z"/>
  <path class="cls-1" d="M39.2,51.36c-.77,1.31-1.5,2.65-2.32,3.93-.89,1.38-1.88,2.69-3.24,3.7-.01-.12-.02-.25-.03-.37,1.55-1.56,2.87-3.28,3.96-5.17,.5-.78,1-1.56,1.5-2.34,.05,.09,.09,.17,.14,.25h0Z"/>
  <path class="cls-1" d="M56.16,42.41c-.14-.11-.58,.21-.46-.28,2.88-.72,5.75-1.44,8.58-2.15-.27,.53-5.82,2.24-8.12,2.44h0Z"/>
  <path class="cls-1" d="M43.32,43.01c1.02,.76,1.99,1.58,3.06,2.25,1.55,.96,3.24,1.62,5.1,1.81-.46,.05-.92,.09-1.38,.14-2.53-.54-4.62-1.81-6.5-3.47-.18-.16-.31-.37-.46-.56,.06-.06,.12-.12,.18-.18h0Z"/>
  <path class="cls-1" d="M59.41,62.21c-2.77,.68-5.51,.82-8.21-.27,.05-.05,.1-.1,.15-.14,1.55,.14,3.1,.33,4.65,.39,.98,.03,1.98-.15,2.97-.23-.07,.05-.14,.09-.3,.19,.32,.03,.53,.05,.74,.06h0Z"/>
  <path class="cls-1" d="M51.86,57.12c.19,0,.49,.1,.3-.27,2.33,.59,4.65,.4,6.96-.13,.22-.05,.44-.09,.66-.13,.32,.05,.65,.09,.97,.14-2.15,.67-4.34,1.05-6.6,.88-.77-.06-1.53-.31-2.29-.48h0Z"/>
  <path class="cls-1" d="M49.98,54.91c-.05-.14-.09-.27-.14-.41,2.72,1.12,5.53,1.22,8.4,.76,.24,.05,.48,.1,.73,.15-2.52,.69-5.04,.67-7.55,.02-.5-.13-.96-.35-1.45-.52h0Z"/>
  <path class="cls-1" d="M45.62,48.89c.4,.28,.81,.55,1.21,.83,1.64,1.18,3.45,1.97,5.5,2.23,.31,.04,.62,.14,.92,.21-.04,.08-.09,.17-.13,.25-2.54-.09-4.72-1.06-6.7-2.5-.38-.27-.73-.58-1.09-.88,.1-.05,.2-.1,.29-.14h0Z"/>
  <path class="cls-1" d="M50.1,47.21c.46-.05,.92-.09,1.38-.14,1.71-.04,3.43-.03,5.14-.13,.78-.04,1.56-.26,2.33-.4,.32,.05,.65,.1,.97,.14-2.6,.79-5.26,1.05-7.97,.87-.63-.04-1.24-.23-1.86-.35h0Zm2.1,.14s0,.05,0,.07h3.06v-.07h-3.05Z"/>
  <path class="cls-1" d="M39.2,51.36c-.05-.09-.09-.17-.14-.25,.09-.48,.19-.96,.28-1.44,0-.12,.01-.24,.02-.36,.07-.22,.15-.43,.22-.65,.02,0,.04-.02,.06-.03,.15,.25,.3,.51,.5,.86,.12-.31,.2-.52,.28-.73,.18-.4,.35-.79,.53-1.19,.05,.26,.11,.52,.16,.78,0,.09,0,.19,0,.28,0,.22-.05,.44-.01,.65,.07,.31,.2,.6,.3,.9-.05,.05-.11,.1-.16,.15-.11-.01-.18,0-.23,.05-.14,.15,.09,.62,.68,1.41-.2-.14-.4-.28-.59-.42-.3-.51-.61-1.02-.97-1.64-.35,.6-.64,1.11-.94,1.62h0Z"/>
  <path class="cls-1" d="M55.4,45.62c.36-.11,.72-.24,1.08-.33,1.79-.44,3.59-.87,5.39-1.3,.25-.06,.5-.11,.84-.19-.42,.69-4.9,1.89-6.88,1.95-.14-.05-.29-.09-.43-.14h0Z"/>
  <path class="cls-1" d="M43.04,42.52c-.05-.04-.1-.09-.15-.13,.15-.19,.3-.37,.44-.56,1.87,1.67,4.02,2.84,6.52,3.42-.42,0-.84,0-1.27,.01-1.61-.38-2.97-1.21-4.29-2.11-.38-.26-.83-.42-1.25-.63Z"/>
  <path class="cls-1" d="M56.51,43.81c.24-.11,.47-.26,.72-.33,1.85-.5,3.7-.99,5.55-1.47,.2-.05,.4-.08,.64,.02-2.16,.94-4.39,1.67-6.77,1.92-.05-.04-.09-.09-.14-.13h0Z"/>
  <path class="cls-1" d="M60.73,37.56c2.08-.69,4.16-1.39,6.31-2.11-.2,.55-3.41,1.82-5.44,2.25-.29-.05-.58-.1-.87-.15h0Z"/>
  <path class="cls-1" d="M48.58,45.26c.42,0,.84,0,1.27-.01,1.85,.13,3.7,.25,5.55,.37,.14,.05,.29,.09,.43,.14-2.18,.43-4.34,.25-6.49-.24-.26-.06-.5-.17-.76-.26h0Z"/>
  <path class="cls-1" d="M53.79,58.82c2.74,.16,5.39-.24,8.07-1.24-.28,.71-2.79,1.49-4.53,1.59,0-.03,0-.06,0-.09,.02-.03,.04-.07,.06-.1-.04-.02-.08-.05-.12-.05-1.16-.01-2.32-.02-3.48-.03,0-.03,0-.06,0-.08h0Z"/>
  <path class="cls-1" d="M42.49,43.97c.04-.06,.08-.11,.11-.17,.06-.14,.11-.27,.17-.41,1.44,1.66,3.13,3.04,5.04,4.18-.1,.05-.2,.1-.31,.16-1.72-.81-3.08-2.08-4.45-3.32-.18-.16-.37-.3-.56-.44h0Z"/>
  <path class="cls-1" d="M46.71,48.25c-.1,.09-.19,.18-.29,.27-1.05-.91-2.1-1.82-3.14-2.73-.35-.39-.7-.78-1.05-1.17,.08-.09,.17-.19,.25-.28,.64,.64,1.25,1.3,1.92,1.91,.75,.69,1.54,1.33,2.31,1.99h0Z"/>
  <path class="cls-1" d="M60.73,37.56c.29,.05,.58,.1,.87,.15-1.72,.43-3.45,.87-5.17,1.3-.43,0-.86-.01-1.29-.02,.78-.19,1.56-.36,2.34-.56,1.09-.28,2.17-.58,3.25-.87h0Z"/>
  <path class="cls-1" d="M57.34,59.08s0,.06,0,.09c-2.07,.28-4.11,.13-6.09-.49-.53-.17-1.03-.43-1.55-.65,.1-.05,.2-.1,.3-.15,1.27,.31,2.53,.63,3.8,.95,0,.03,0,.06,0,.08-.1,.02-.2,.04-.3,.06,0,.04,0,.08,0,.12h3.84Z"/>
  <path class="cls-1" d="M33.61,58.62c.01,.12,.02,.24,.03,.37-1.19,1.41-2.79,2.26-4.5,2.94-.23-.05-.47-.1-.7-.14,1.96-.7,3.69-1.76,5.17-3.17h0Z"/>
  <path class="cls-1" d="M44.77,38.99c.1,.09,.21,.19,.31,.28-.22-.02-.44-.04-.66-.06-.02,.07-.05,.15-.07,.22,.56,.48,1.28,.68,2,.86,.76,.19,1.53,.34,2.3,.51-.1,.09-.2,.19-.3,.28-1.19-.3-2.37-.6-3.56-.9-.28-.07-.6-.32-.8,.12-.05,0-.1,0-.15,0,.05-.17,.11-.35,.16-.52,.19-.33,.16-.85,.78-.8h0Z"/>
  <path class="cls-1" d="M57.89,50.6c-.45-.08-.9-.16-1.35-.24,1.64-.32,3.28-.65,4.92-.97-1.04,.86-2.36,.86-3.57,1.22h0Z"/>
  <path class="cls-1" d="M44.53,37.96c.13-.22,.26-.44,.38-.67,.01,.05,.02,.1,.03,.15-.18,.48,.18,.47,.51,.53,1.68,.3,3.37,.31,5.07,.09,.36,.05,.72,.1,1.08,.14-.87,.06-1.74,.13-2.61,.19-.49,.03-.99,.11-1.48,.08-.94-.05-1.88-.15-2.83-.23-.01-.02-.02-.04-.04-.06-.04-.08-.08-.16-.11-.23h0Z"/>
  <path class="cls-1" d="M48.34,41.08c.1-.09,.2-.19,.3-.28h4.85c4-1.04,8-2.08,12-3.12-2.91,1.54-7.44,3.38-13.13,3.56-1.44,.05-2.79-.02-4.02-.15h0Z"/>
  <path class="cls-1" d="M51.28,38.24c-.51,0-1.03-.02-1.54-.03,1.02-.19,2.04-.38,3.07-.58,1.39-.25,2.77-.5,4.16-.74,.2-.03,.4-.07,.59-.1-.19,.13-.36,.34-.59,.39-1.89,.37-3.79,.71-5.68,1.06h0Z"/>
  <path class="cls-1" d="M45.62,48.89c-.1,.05-.2,.1-.29,.14l-1.25-1.17c-.21-.25-.44-.49-.62-.76-.39-.57-.75-1.15-1.12-1.72,.22,.18,.44,.36,.66,.54,.88,.99,1.75,1.98,2.63,2.97h0Z"/>
  <path class="cls-1" d="M43.83,50.99c-.09,.05-.18,.1-.27,.15-.45-.61-.9-1.22-1.36-1.83-.32-.56-.64-1.12-.97-1.69,.04-.09,.08-.19,.12-.28h.05c.49,.73,.98,1.47,1.48,2.22,.32,.47,.63,.95,.95,1.42h0Z"/>
  <path class="cls-1" d="M60.39,51.66c-1.34,.25-2.67,.5-4.01,.75-.04-.09-.09-.17-.13-.26,1.27-.25,2.54-.51,3.81-.76,.11,.09,.22,.18,.33,.27h0Z"/>
  <path class="cls-1" d="M43.33,41.83c-.15,.19-.3,.37-.44,.56-.12-.1-.35-.23-.33-.3,.25-1.04-.77-1.41-1.18-2.09-.04-.07-.07-.15-.15-.31,.79,.6,1.5,1.13,2.21,1.67-.04,.1-.08,.2-.12,.31,0,.06,0,.11,0,.17Z"/>
  <path class="cls-1" d="M51.34,43.95h2.73c.19,.09,.38,.18,.57,.27-1.29,.3-2.58,.3-3.87,0,.19-.09,.38-.18,.57-.27h0Z"/>
  <path class="cls-1" d="M59.93,46.69c-.32-.05-.65-.1-.97-.14,1.02-.29,2.04-.58,3.07-.88,.03,.09,.06,.18,.1,.27-.63,.48-1.44,.54-2.19,.75h0Z"/>
  <path class="cls-1" d="M58.98,55.41c-.24-.05-.48-.1-.73-.15,1.02-.28,2.05-.56,3.21-.88-.23,.43-1.06,.77-2.48,1.03h0Z"/>
  <path class="cls-1" d="M51.35,61.79s-.1,.09-.15,.14c-.92-.38-1.93-.62-2.58-1.45h0c.91,.44,1.82,.87,2.74,1.3h0Z"/>
  <path class="cls-1" d="M59.96,60.38c-.15-.09-.29-.18-.44-.27,.83-.26,1.63-.65,2.5-.75,.03,.09,.07,.19,.1,.28-.72,.25-1.44,.49-2.17,.74h0Z"/>
  <path class="cls-1" d="M47.51,47.74c.1-.05,.2-.1,.31-.16,.72,.23,1.44,.46,2.16,.69-.23,.08-.46,.16-.68,.25-.59-.26-1.18-.52-1.78-.78h0Z"/>
  <path class="cls-1" d="M59.41,62.21c-.21-.02-.43-.04-.74-.06,.16-.11,.23-.15,.3-.19,.7-.19,1.4-.38,2.11-.57,.03,.06,.05,.13,.08,.19-.46,.46-1.19,.37-1.74,.64h0Z"/>
  <path class="cls-1" d="M54.64,44.23c-.19-.09-.38-.18-.57-.27,.57-.07,1.15-.15,1.72-.2,.24-.02,.48,.03,.72,.05,.05,.04,.09,.09,.14,.13-.67,.1-1.34,.19-2.01,.29h0Z"/>
  <path class="cls-1" d="M51.34,43.95c-.19,.09-.38,.18-.57,.27-.62-.1-1.25-.2-1.87-.29,.14-.09,.27-.17,.41-.26,.68,.09,1.35,.19,2.03,.28Z"/>
  <path class="cls-1" d="M49.31,43.67c-.14,.09-.27,.17-.41,.26-.56-.16-1.12-.32-1.68-.49,.1-.09,.2-.18,.3-.26,.6,.17,1.19,.33,1.79,.49Z"/>
  <path class="cls-1" d="M57.43,36.75c.3,.06,.59,.11,.88,.17-.65,.09-1.3,.17-1.95,.26,.36-.14,.71-.28,1.07-.43h0Z"/>
  <path class="cls-1" d="M60.76,56.72c-.32-.05-.65-.09-.97-.14,.56-.15,1.12-.3,1.67-.45,.03,.07,.07,.14,.1,.21-.27,.12-.54,.25-.81,.37h0Z"/>
  <path class="cls-1" d="M56.25,52.16c.04,.09,.09,.17,.13,.26h-3.26c.04-.08,.09-.17,.13-.25,1,0,2,0,3,0h0Z"/>
  <path class="cls-1" d="M60.39,51.66c-.11-.09-.22-.18-.33-.27,.39-.11,.78-.21,1.17-.32,.03,.09,.06,.18,.09,.27-.31,.11-.62,.21-.93,.32h0Z"/>
  <path class="cls-1" d="M42.77,43.4c-.06,.14-.11,.27-.17,.41-.03-.29-.07-.58-.1-.9,.18-.09,.36-.18,.54-.28,.09,.13,.19,.26,.28,.39-.06,.06-.12,.12-.18,.18-.12,.07-.25,.14-.37,.21h0Z"/>
  <path class="cls-1" d="M50.55,29.25c-.57,.46-1.13,.93-1.7,1.39-.3,.23-.6,.46-.9,.69-.46,.34-.91,.68-1.37,1.03l-.05-.03c.6-1.51,1.21-3.02,1.81-4.54,.34-.52,.89-.97,.69-1.69,.09-.31,.18-.61,.26-.92,.09,0,.19,0,.28,0,.13-.09,.27-.17,.4-.26,.07,.04,.18,.13,.21,.11,.21-.15,.41-.33,.61-.5,.05,0,.1,0,.15,0-.15,.21-.3,.43-.44,.64-.38,.47-.76,.94-1.13,1.41,.07,.05,.13,.1,.2,.14l1.23-1.42c.46-.47,.92-.94,1.38-1.41,.04,0,.08-.02,.12-.02,.05,.14,.1,.27,.14,.41-.82,.82-1.64,1.64-2.47,2.46-.38,.42-.76,.85-1.22,1.36,.3,.04,.42,.06,.55,.07h0c-.05,.12-.1,.25-.15,.38-.37,.37-.74,.74-1.11,1.11,.06,.05,.11,.1,.17,.15,.37-.37,.74-.75,1.11-1.12,.48-.35,.96-.71,1.45-1.06,.16,0,.31,.01,.47,.02-.79,.69-1.57,1.37-2.35,2.06-.35,.28-.69,.56-1.04,.84,.06,.07,.12,.14,.18,.2,.38-.3,.76-.61,1.14-.91,.41-.26,.82-.53,1.23-.79,.06,.06,.12,.12,.18,.18h0Z"/>
  <path class="cls-1" d="M62.67,28.83c-2.77,.92-5.55,1.79-8.29,2.77-2.63,.94-5.21,1.98-7.81,3-.24,.09-.8,.06-.49,.6,.1,.1,.2,.19,.3,.28-.14,.05-.29,.1-.43,.15-.38-.22-.48-.51-.29-.9,.29-.6,.56-1.21,.84-1.82-.13,.44,.14,.29,.33,.19,.84-.43,1.68-.86,2.51-1.3,.1,.09,.19,.18,.29,.28-1.18,.65-2.36,1.3-3.53,1.95,.01,.01,.03,.02,.04,.03,5.42-1.88,10.84-3.76,16.27-5.64,.45-.09,.89-.19,1.34-.28h.01c-.36,.24-.72,.47-1.08,.69h0Z"/>
  <path class="cls-1" d="M55.39,24.65c1.63-.74,3.2-1.64,4.9-2.19,2.63-.85,5.34-1.47,8.02-2.18,.11-.03,.22-.02,.34-.03-.05,.12-.09,.23-.14,.35-1.53,.38-3.07,.76-4.6,1.14-2.83,.69-5.5,1.76-8.08,3.05-.15-.05-.3-.1-.44-.15h0Z"/>
  <path class="cls-1" d="M60.43,20.74c1.7-.51,3.38-1.12,5.12-1.52,1.91-.44,3.86-.7,5.8-1.01,.38-.06,.78,0,1.17,0,.01,.07,.02,.14,.03,.22-.46,.09-.91,.18-1.37,.26-1.96,.34-3.93,.62-5.87,1.04-1.59,.35-3.13,.86-4.69,1.31-.06-.1-.12-.19-.18-.29h0Z"/>
  <path class="cls-1" d="M65.36,23.1c-1.17,.31-2.34,.61-3.52,.92-.2-.05-.41-.11-.61-.16,1.6-.48,3.18-1.02,4.8-1.44,1.62-.42,3.27-.72,4.91-1.05,.52-.1,1.05-.12,1.58-.17,.02,.07,.04,.14,.06,.21-.2,.07-.4,.17-.61,.22-1.92,.41-3.85,.81-5.78,1.22-.28,.06-.56,.17-.84,.25h0Z"/>
  <path class="cls-1" d="M61.17,27.16c1.96-.56,3.92-1.12,5.88-1.67,.43-.12,.87-.21,1.31-.31,.32,.05,.65,.09,.97,.14-2.59,.74-5.18,1.47-7.78,2.21-.58,.18-1.17,.36-1.75,.54-.6,.21-1.19,.42-1.79,.64-.14-.09-.28-.18-.42-.26,.77-.26,1.54-.53,2.32-.79,.42-.16,.84-.33,1.25-.49h0Z"/>
  <path class="cls-1" d="M63.34,16.34c3.02-.92,8.53-1.55,9.22-.88-1.43,.13-2.87,.2-4.3,.39-1.46,.19-2.9,.5-4.35,.75-.19-.09-.38-.17-.58-.26h0Z"/>
  <path class="cls-1" d="M55.65,32.33c.92-.3,1.85-.6,2.77-.91,1.85-.59,3.69-1.18,5.54-1.76,.28-.09,.57-.12,.86-.17-.04,.17-.08,.34-.12,.51-2.86,.86-5.73,1.72-8.59,2.58-.15-.09-.31-.17-.46-.25h0Z"/>
  <path class="cls-1" d="M66.09,17.66c.84-.1,1.04-.1,1.04-.08,.02,.09-4.35,.31-8.71,2.72-.17,.09-.31,.18-.41,.23-.63,.35-.96,.5-1,.44-.04-.05,.15-.25,.55-.6,.21-.11,.41-.22,.62-.34,.96-.5,2.13-1.02,3.49-1.48,1.36-.46,2.62-.75,3.7-.93,.24,.01,.48,.02,.72,.03h0Z"/>
  <path class="cls-1" d="M66.09,17.66c-.24-.01-.48-.02-.72-.03,1.15-.24,2.29-.52,3.44-.71,.94-.16,1.89-.22,2.84-.31,.28-.02,.56,.03,.91,.06-.38,.4-4.14,.93-6.47,.99h0Z"/>
  <path class="cls-1" d="M60.19,14.11c.51-.21,1.01-.42,1.52-.64,1.58-.4,3.16-.8,4.74-1.2,.41,.09,.83,.18,1.24,.27-2.39,.28-4.72,.79-6.94,1.71-.19-.05-.37-.09-.56-.14Z"/>
  <path class="cls-1" d="M61.43,17.37c-1.31,.61-2.63,1.23-3.95,1.84-.5,.34-1,.69-1.5,1.03-.08,.01-.17,.03-.25,.04-.19-.02-.39-.03-.59-.05,.77-.49,1.51-1.03,2.32-1.45,1.2-.61,2.44-1.13,3.67-1.7,.1,.09,.2,.19,.29,.28h0Z"/>
  <path class="cls-1" d="M67.69,12.54c-.41-.09-.83-.18-1.24-.27,1.9-.31,3.8-.36,5.71-.03-.68,.5-1.45,.13-2.17,.23-.76,.1-1.53,.06-2.3,.07h0Z"/>
  <path class="cls-1" d="M61.23,23.86c.2,.05,.41,.11,.61,.16-1.83,.68-3.65,1.36-5.47,2.05-.04-.12-.08-.24-.12-.35,1.66-.62,3.32-1.24,4.98-1.86h0Z"/>
  <path class="cls-1" d="M62.1,25.29c1.37-.42,2.74-.83,4.11-1.24,.22-.06,.44-.11,.65-.17,.27,.08,.54,.17,.81,.25-1.8,.49-3.6,.98-5.4,1.47-.06-.1-.12-.21-.17-.31Z"/>
  <path class="cls-1" d="M54.22,24.03c-.15,.18-.27,.39-.45,.54-1.27,1.06-2.54,2.11-3.82,3.16-.2,.17-.44,.3-.66,.44h0c.32-.42,.64-.86,.96-1.29,1.21-.93,2.42-1.87,3.63-2.8,.11-.02,.21-.05,.32-.07v.02s.01,0,.01,0Z"/>
  <path class="cls-1" d="M69.47,28.56c-.33,.09-.65,.18-.98,.27-.31,.09-.61,.19-.92,.28-.19,.08-.38,.16-.57,.24-.27,.05-.53,.09-.8,.14-.1-.09-.19-.18-.29-.27,1.82-.58,3.64-1.16,5.46-1.73,.05,.12,.09,.23,.14,.35-.68,.24-1.36,.48-2.04,.72Z"/>
  <path class="cls-1" d="M64.81,9.67c-.81,.18-1.62,.35-2.43,.53-.06-.09-.11-.19-.17-.28,1.51-.34,3.02-.69,4.54-1.03,.4,.04,.81,.07,1.22,.11,0,.06,0,.11,.01,.17-.46,.08-.92,.18-1.38,.25-.59,.09-1.19,.17-1.78,.25h0Z"/>
  <path class="cls-1" d="M65.54,14.52c-1.5,.43-3,.86-4.49,1.29-.24-.05-.48-.09-.71-.14,1.51-.47,3.02-.94,4.53-1.41,.23,.09,.45,.17,.68,.26h0Z"/>
  <path class="cls-1" d="M59.24,16.57c-1.54,.98-3.08,1.97-4.62,2.95,1.18-1.47,2.78-2.41,4.47-3.23,.05,.09,.1,.18,.15,.27h0Z"/>
  <path class="cls-1" d="M66.29,10.83c.5-.11,.99-.29,1.49-.32,.9-.06,1.8-.01,2.7-.05,.75-.03,.94,0,1.32,.39-.9,0-1.73-.02-2.57,0-.84,.02-1.67,.08-2.51,.12-.15-.05-.3-.1-.44-.14h0Z"/>
  <path class="cls-1" d="M50.55,29.25c-.06-.06-.12-.12-.18-.18,1.28-.77,2.56-1.54,3.84-2.32,.16,.07,.32,.13,.48,.2-1.38,.77-2.76,1.53-4.14,2.3h0Z"/>
  <path class="cls-1" d="M55.98,17.11c-.74,.73-1.48,1.45-2.21,2.19-.2,.2-.35,.45-.53,.67-.32,.32-1.35,1.35-1.75,1.47-.04,.01-.13,.04-.16,0-.04-.06,.17-.28,.32-.42,.24-.24,.62-.59,1.18-1.04,.23-.35,.46-.7,.69-1.05,.77-.72,1.53-1.43,2.3-2.15l.16,.32h0Z"/>
  <path class="cls-1" d="M55.98,17.11c-.05-.11-.1-.21-.16-.32,1.1-.72,2.19-1.44,3.29-2.16,.09,.05,.19,.09,.28,.14-.85,.57-1.71,1.13-2.55,1.71-.3,.2-.57,.42-.86,.63h0Z"/>
  <path class="cls-1" d="M67.19,24.26c-.4-.08-.81-.15-1.22-.23,1.48-.34,2.95-.7,4.44-1.01,.4-.08,.86-.02,1.29-.02-.81,.27-1.6,.56-2.42,.79-.68,.19-1.4,.31-2.1,.46h0Z"/>
  <path class="cls-1" d="M69.37,26.89c-1.23,.35-2.45,.7-3.68,1.04-.15-.08-.29-.17-.44-.25,1.13-.31,2.26-.63,3.39-.94,.24,.05,.49,.1,.73,.15h0Z"/>
  <path class="cls-1" d="M60.43,20.74c.06,.1,.12,.19,.18,.29-1.03,.44-2.07,.88-3.1,1.32-.06-.06-.12-.11-.18-.17,0-.08,.01-.16,.02-.24,1.03-.4,2.06-.8,3.08-1.2h0Z"/>
  <path class="cls-1" d="M69.37,26.89c-.24-.05-.48-.1-.73-.15,1.09-.32,2.19-.63,3.28-.95,.03,.1,.06,.19,.09,.29-.79,.51-1.75,.58-2.64,.81h0Z"/>
  <path class="cls-1" d="M56.24,22.58c1.09-.67,1.7-.93,1.86-.77,.05,.05,.05,.14,0,.28-.2,.09-.4,.17-.59,.26-.45,.26-.9,.53-1.36,.79-.43,.25-.82,.43-1.36,.78-.24,.15-.44,.29-.56,.37-.2,.22-.39,.33-.45,.29-.06-.04-.01-.25,.12-.48,.38-.28,.76-.57,1.13-.86,.41-.22,.81-.44,1.22-.66h0Z"/>
  <path class="cls-1" d="M66.01,27.48c.21,.05,.42,.1,.64,.15-1.55,.41-3.1,.83-4.64,1.24h-.02c-.01-.08-.02-.16-.03-.23,1.35-.39,2.7-.77,4.05-1.16h0Z"/>
  <path class="cls-1" d="M69.19,13.85c.99-.09,1.98-.19,2.97-.24,.1,0,.21,.24,.31,.38-1.09-.05-2.19-.09-3.28-.13Z"/>
  <path class="cls-1" d="M51.89,21.93c.55-.56,1.1-1.12,1.65-1.68,.57-.67,1.16-1.08,1.59-1.32,.06-.04,.61-.34,.66-.28,.04,.05-.27,.35-1.57,1.32-.32,.39-.65,.78-.97,1.17-.46,.43-.91,.87-1.37,1.3,0-.17,0-.35,0-.52h0Z"/>
  <path class="cls-1" d="M51.21,27.67c-.16,0-.31-.01-.47-.02,.87-.62,1.74-1.23,2.61-1.85,.05,.1,.11,.19,.16,.29-.77,.53-1.54,1.05-2.31,1.58h0Z"/>
  <path class="cls-1" d="M67.98,9.17c0-.06,0-.11-.01-.17,.42-.04,.83-.09,1.25-.13,.67,.04,1.34,.08,2.01,.11,0,.11-.01,.22-.02,.32-1.07-.05-2.15-.09-3.22-.14h0Z"/>
  <path class="cls-1" d="M61.43,17.37c-.1-.09-.2-.19-.29-.28,.74-.25,1.47-.5,2.21-.75,.19,.09,.38,.17,.58,.26-.83,.26-1.66,.51-2.49,.77h0Z"/>
  <path class="cls-1" d="M53.52,26.09c-.05-.1-.11-.19-.16-.29,.68-.38,1.35-.77,2.03-1.15,.15,.05,.3,.1,.44,.15-.77,.43-1.54,.87-2.31,1.3h0Z"/>
  <path class="cls-1" d="M65.54,14.52c-.23-.09-.45-.17-.68-.26,1.04-.14,2.07-.27,3.11-.41-.13,.13-.27,.25-.4,.38-.67,.09-1.35,.19-2.02,.28h0Z"/>
  <path class="cls-1" d="M57.75,26.75c.68-.26,1.36-.52,2.04-.78,.24,.05,.48,.1,.72,.15-.33,.13-.66,.25-.99,.38-.23,.08-.47,.16-.7,.25l-.5,.15c-.2-.05-.39-.1-.59-.14h0Z"/>
  <path class="cls-1" d="M66.29,10.83c.15,.05,.3,.1,.44,.14-.86,.13-1.72,.26-2.58,.39-.03-.08-.07-.15-.1-.23,.08-.1,.16-.19,.24-.29,.67,0,1.34-.01,2-.02h0Z"/>
  <path class="cls-1" d="M70.29,24.66c.67-.18,1.31-.51,2.22-.32-.58,.49-1.15,.51-1.7,.56-.17-.08-.35-.17-.52-.25h0Z"/>
  <path class="cls-1" d="M54.69,26.95c-.16-.07-.32-.13-.48-.2,.68-.35,1.36-.7,2.04-1.05,.04,.12,.08,.24,.12,.35-.56,.3-1.12,.59-1.68,.89Z"/>
  <path class="cls-1" d="M60.52,26.12c-.24-.05-.48-.1-.72-.15,.77-.23,1.54-.46,2.3-.69,.06,.1,.12,.2,.17,.31-.58,.18-1.17,.35-1.75,.53h0Z"/>
  <path class="cls-1" d="M67.56,14.24c.13-.13,.27-.25,.4-.38,.41,0,.81,0,1.22,0,1.09,.05,2.19,.09,3.28,.13-.63,.04-1.25,.08-1.88,.11-1.01,.05-2.02,.09-3.03,.14h0Z"/>
  <path class="cls-1" d="M70.75,19.84c.59-.06,1.17-.13,1.76-.19,.01,.1,.03,.2,.04,.29-.59,.1-1.18,.2-1.77,.29-.01-.13-.02-.27-.03-.4h0Z"/>
  <path class="cls-1" d="M70.29,24.66c.17,.08,.35,.17,.52,.25-.49,.14-.98,.27-1.47,.41-.32-.05-.65-.09-.97-.14,.64-.17,1.28-.34,1.92-.52h0Z"/>
  <path class="cls-1" d="M70.84,23.23c.36-.17,.73-.34,1.09-.51h.63c0,.07,.02,.13,.03,.2-.53,.29-1.15,.26-1.75,.31h0Z"/>
  <path class="cls-1" d="M59.24,16.57c-.05-.09-.1-.18-.15-.27,.41-.21,.83-.42,1.24-.62,.24,.05,.48,.09,.71,.14-.6,.25-1.21,.5-1.81,.75h0Z"/>
  <path class="cls-1" d="M65.91,29.22c.1,.09,.19,.18,.29,.27-.37,.13-.74,.25-1.11,.38-.13,.05-.25,.1-.38,.15,.04-.17,.08-.34,.12-.51,.36-.09,.72-.19,1.08-.28h0Z"/>
  <path class="cls-1" d="M54.32,20.87c.19-.17,.38-.33,.57-.5,.09-.05,.17-.09,.26-.14,.19,.02,.39,.03,.59,.05-.46,.37-.93,.75-1.39,1.12,0-.18-.02-.36-.02-.53h0Z"/>
  <path class="cls-1" d="M59.39,14.77c-.09-.05-.19-.09-.28-.14,.05-.04,.1-.08,.14-.13,.31-.13,.63-.27,.94-.4,.19,.05,.37,.09,.56,.14-.45,.17-.91,.35-1.36,.52h0Z"/>
  <path class="cls-1" d="M68.37,20.64c.08-.13,.17-.25,.25-.38,.89-.15,1.77-.3,2.66-.45,.05,.07,.11,.15,.16,.22-1.02,.2-2.04,.4-3.06,.6h0Z"/>
  <path class="cls-1" d="M67.01,32.6c-1.54,.52-3.09,1.03-4.63,1.55-.6,.18-1.19,.36-1.79,.53-1.58,.44-3.17,.87-4.75,1.31-.74,.17-1.48,.34-2.21,.51-.35,.05-.7,.1-1.05,.15-.18-.09-.37-.17-.55-.26,.21-.07,.42-.15,.64-.21,1.87-.45,3.76-.83,5.6-1.37,2.8-.81,5.56-1.73,8.34-2.6,.41-.13,.82-.26,1.23-.39-.14,.17-.27,.34-.41,.51-.14,.09-.28,.18-.42,.27h0Z"/>
  <path class="cls-1" d="M67.43,32.34c.14-.17,.27-.34,.41-.51,.47-.15,.93-.34,1.42-.43,.22-.04,.48,.1,.72,.17-.3,.13-.61,.27-.91,.4-.18,.05-.36,.1-.54,.14-.36,.08-.73,.16-1.1,.23h0Z"/>
  <path class="cls-1" d="M37.17,42.38c-.05-.17-.09-.34-.14-.52,.02-.13,.1-.29,.05-.4-.13-.31-.31-.6-.46-.9,.44-.31,.88-.62,1.32-.93-.05-.05-.09-.1-.14-.16-.52,.22-1.05,.45-1.19,1.08-.09-.09-.18-.18-.28-.27,0-.08,0-.16,0-.24,.01-.05,.02-.1,.03-.15,.39-.26,.81-.49,1.17-.79,.49-.41,.94-.86,1.4-1.29,.04,.07,.09,.21,.13,.21,.66-.01,.65,.46,.68,.88,.06,.98,.1,1.96,.15,2.95-.07-.11-.14-.21-.24-.36-.15,.19-.27,.34-.38,.48,.13,.2,.25,.37,.37,.55,.14-.16,.26-.29,.37-.42v.79c-.41-.12-.82-.24-1.2-.35-.09,.47-.19,1-.29,1.52h0c-.17,.1-.34,.2-.51,.3-.05-.02-.09-.04-.14-.06,.19-.37,.38-.74,.56-1.09-.34,.12-.65,.23-.97,.35,.32-.43,.64-.86,.99-1.33-.44,.15-.8,.28-1.16,.4,.37-.43,.75-.87,1.12-1.3-.08-.06-.17-.12-.25-.18-.29,.41-.59,.81-.88,1.22-.05,0-.09,0-.13,0h0Z"/>
  <path class="cls-1" d="M45.49,35.76c.03,.62,.47,.31,.74,.28,1.34-.17,2.67-.37,4.01-.56,.15,.05,.31,.11,.46,.16-.15,.04-.29,.09-.44,.13-.69,.17-1.38,.33-2.07,.5-.95,.12-1.9,.24-2.85,.36,.01,.08,.03,.17,.04,.25,1.5,.17,2.98-.05,4.46-.23,.46-.08,.93-.16,1.39-.24,.26,0,.53,0,.79,0,.18,.09,.37,.17,.55,.26-2.51,.57-5.06,.79-7.63,.79,0-.05-.02-.1-.03-.15-.08-.77-.03-.81,1.25-.95-.35-.07-.56-.08-.73-.16-.04-.02,.03-.27,.06-.42h0Z"/>
  <path class="cls-1" d="M44.53,37.96c.04,.08,.08,.16,.11,.23-.54,.35-.15,.56,.12,.8-.62-.06-.59,.47-.78,.8-.24-.11-.48-.22-.83-.37,.23-.16,.38-.27,.65-.46-.28-.16-.51-.29-.83-.47-.05,.29-.09,.46-.11,.61-.37,.15-.79-.66-1.03,.35-.14-.5-.21-.78-.27-.97h-.99c.05-.88,.14-.93,1.05-.87,.67,.05,1.34,0,2.06,0-.02,.53,.39,.48,.84,.34h0Z"/>
  <path class="cls-1" d="M38.94,37.82c-.47,.43-.91,.89-1.4,1.29-.36,.3-.77,.53-1.17,.79-.05-.05-.1-.09-.15-.13,.36-.37,.72-.74,1.21-1.25-.54,.24-.94,.41-1.33,.59-.12-.05-.24-.11-.37-.17,.39-1.09-.65-.57-.89-.71,.26-.21,.53-.44,.8-.66,.43,.05,.85,.13,1.28,.15,.27,.01,.59,0,.79-.13,.53-.34,.92-.31,1.23,.23h0Z"/>
  <path class="cls-1" d="M55.45,27.93c-.18,.13-.34,.3-.54,.38-2.87,1.24-5.48,2.88-8.1,4.53-.11,.07-.24,.12-.36,.17,.02-.23,.05-.46,.07-.69l.05,.03c.16,0,.35,.04,.47-.03,.36-.22,.69-.49,1.02-.74,.41-.27,.81-.53,1.22-.8,1.75-.9,3.5-1.8,5.25-2.71,.2-.1,.4-.2,.6-.3,.1,.05,.2,.1,.31,.15Z"/>
  <path class="cls-1" d="M28.58,33.78c.45,.05,.89,.1,1.34,.15,1.55,.47,3.1,.94,4.65,1.41v.13c.14,.22,.28,.44,.42,.66-.71-.3-1.4-.64-2.13-.89-.98-.32-1.98-.58-2.98-.84-.36-.09-.75-.09-1.12-.17-.13-.03-.24-.19-.35-.3,.06-.05,.11-.1,.17-.15h0Z"/>
  <path class="cls-1" d="M35.64,37.58c-.27,.22-.54,.44-.8,.66,.24,.14,1.28-.38,.89,.71,.13,.06,.25,.11,.37,.17-.01,.05-.03,.11-.04,.16h-.9c-.15-.09-.29-.18-.44-.26,.31-.13,.62-.26,.93-.4-.02-.05-.04-.09-.05-.14h-5.51c-.12-.06-.24-.12-.36-.17,.04-.05,.07-.11,.11-.16,.13-.02,.25-.04,.38-.06,1.64,.29,3.27,.03,4.89-.19,.14-.02,.26-.21,.39-.32l.07-.02s.06,.01,.09,.02h0Z"/>
  <path class="cls-1" d="M30.08,37.04c.37-.09,.75-.18,1.12-.27,1.35,.05,2.69,.09,4.04,.14,.1,.22,.21,.43,.31,.65l-.07,.02c-.36-.05-.71-.1-1.07-.13-1.44-.14-2.88-.27-4.33-.4h0Z"/>
  <path class="cls-1" d="M30.61,35.87c.23-.09,.46-.17,.69-.26,.85,.13,1.69,.26,2.54,.38,.38,.05,.76,.09,1.14,.13-.29,.11-.58,.21-.87,.32-1.17-.19-2.33-.38-3.5-.57h0Z"/>
  <path class="cls-1" d="M38.53,44.08c.1-.53,.2-1.05,.29-1.52,.38,.11,.79,.23,1.2,.35-.04,.17-.08,.34-.12,.51-.2,.02-.4,.04-.61,.06-.01-.05-.03-.1-.04-.14-.24,.25-.49,.5-.73,.75h0Z"/>
  <path class="cls-1" d="M49.03,26.1c.21,.73-.35,1.17-.69,1.69,.23-.56,.46-1.13,.69-1.69Z"/>
  <path class="cls-1" d="M40.02,42.12c-.12,.13-.23,.26-.37,.42-.12-.18-.24-.35-.37-.55,.11-.15,.23-.3,.38-.48,.1,.15,.17,.25,.24,.36,.04,.09,.08,.17,.13,.26h0Z"/>
  <path class="cls-1" d="M35.53,40.82c.04,.08,.09,.17,.13,.25-.59,.26-1.18,.53-1.76,.79-.09-.09-.18-.17-.27-.26,.64-.26,1.27-.52,1.91-.79h0Z"/>
  <path class="cls-1" d="M29.65,58.14c.75-.44,1.53-.84,2.25-1.32,2.11-1.41,3.76-3.24,5.14-5.31,.24-.34,.48-.67,.71-1.01,.5-.75,.99-1.52,1.48-2.27-.06,.23-.07,.47-.18,.68-.34,.65-.71,1.29-1.06,1.94-.3,.44-.58,.88-.89,1.31-1.84,2.57-3.98,4.83-7.04,6.12-.13-.05-.27-.09-.4-.13h0Z"/>
  <path class="cls-1" d="M29.65,58.14c.13,.05,.27,.09,.4,.13-1.19,.31-2.36,.74-3.57,.88-1.33,.15-2.69,.03-4.04,.03-.27-.08-.54-.17-.82-.25,.09-.05,.18-.09,.33-.17-.2-.1-.33-.17-.46-.23,.18,0,.36,0,.54,0,2.06,.47,4.12,.39,6.17-.08,.48-.11,.97-.21,1.45-.32h0Zm-6.53,.83v.07h3.54v-.07h-3.54Z"/>
  <path class="cls-1" d="M28.84,19.2c.05,0,.1,0,.15,0,.14,.65,.27,1.3,.41,1.96,0,.22,0,.44,0,.66-.23-.68-.47-1.36-.66-2.05-.05-.16,.07-.37,.11-.55h0Z"/>
  <path class="cls-1" d="M29.39,21.8c0-.22,0-.44,0-.66,.46,.38,.66,.85,.54,1.43-.18-.26-.37-.52-.55-.78h0Z"/>
  <path class="cls-1" d="M51.92,21.02c-.09,.14-.19,.27-.28,.4-.34,.35-.22,1.19-1.11,.93-.22,.03-.44,.06-.66,.1-.07,0-.15,0-.22,.01,.02-.22,.05-.44,.07-.65,.25,.17,.6,.46,.75,0,.18-.56,.18-1.18,.26-1.77-.04,0-.08,0-.12-.01-.18,.24-.35,.48-.53,.72,.25-.6,.5-1.2,.75-1.8,.04,0,.07,0,.11,0,.12,.4,.31,.43,.59,.11,.11-.13,.24-.25,.36-.37,.15-.02,.29-.04,.36-.05-.13,.64-.24,1.25-.36,1.87,.02,.18,.03,.35,.05,.53h0Z"/>
  <path class="cls-1" d="M50.08,20.74c.18-.24,.35-.48,.53-.72,.04,0,.08,0,.12,.01-.08,.59-.08,1.21-.26,1.77-.15,.46-.49,.17-.75,0,0-.09,.01-.17,.02-.26,.08-.26,.16-.52,.25-.78,.03,0,.06-.02,.09-.03h0Z"/>
  <path class="cls-1" d="M31.44,27.01c.1,.21,.2,.43,.29,.64-.84-.05-1.05-.31-1.14-1.39,.27,.24,.56,.5,.85,.75Z"/>
  <path class="cls-1" d="M33.9,33.13c-.61-.41-1.44-.59-1.64-1.43,.27-.13,.55-.27,.82-.4,.83,.17,.45,.96,.78,1.39,.08,.1,.03,.29,.04,.44h0Z"/>
  <path class="cls-1" d="M34.21,31.63c.17,.25,.34,.5,.52,.74-.07,.04-.13,.09-.2,.13-.19-.24-.37-.48-.56-.72,.08-.05,.16-.1,.24-.16h0Z"/>
  <path class="cls-1" d="M52.18,17.53c.05-.78,.58-1.31,1.08-1.86,.17-.13,.34-.26,.51-.38,.06,0,.13,.01,.19,.01-.2,.3-.39,.6-.59,.9-.38,.45-.43,1.18-1.18,1.33h0Z"/>
  <path class="cls-1" d="M39.62,47.73s-.09-.09-.14-.14v-2.03c-.06-.01-.13-.03-.19-.04-.16,.18-.32,.35-.49,.52-.06,0-.11,.02-.17,.03-.07,.04-.15,.08-.23,.12-.09-.05-.18-.09-.27-.14,.08-.09,.16-.18,.23-.27,.44-.38,.74-.82,.57-1.43,.21-.13,.43-.26,.64-.39,.12,.18,.28,.35,.34,.55,.12,.44,.21,.88,.25,1.33,.02,.23-.11,.48-.15,.72-.02,.1-.05,.26,0,.31,.61,.61,.1,.73-.39,.87h0Z"/>
  <path class="cls-1" d="M25.07,47.35h2.92s0,.04,0,.06h-2.91s0-.04,0-.06Z"/>
  <path class="cls-1" d="M23.39,49.03c.61-.04,1.21-.11,1.82-.12,1.02-.02,2.04,0,3.06,.12h-4.88Z"/>
  <path class="cls-1" d="M37.3,42.39c.29-.41,.59-.81,.88-1.22,.08,.06,.17,.12,.25,.18-.37,.43-.75,.87-1.12,1.3,0-.09,0-.17,0-.26h0Z"/>
  <path class="cls-1" d="M25.57,39.02c1.07,.13,2.15,.25,3.22,.37,2,.23,3.96-.05,5.92-.38,.15,.09,.29,.18,.44,.26-3.05,.93-6.13,.73-9.22,.23-.45-.07-.89-.16-1.34-.24,.32-.08,.65-.17,.97-.25h0Z"/>
  <path class="cls-1" d="M14.66,4.19h-3.24s0-.05,0-.07h3.23s0,.05,0,.07h0Z"/>
  <path class="cls-1" d="M68.92,4.18h-3.27v-.07h3.27v.07Z"/>
  <path class="cls-1" d="M51.88,18.67c-.12,.12-.25,.24-.36,.37-.27,.32-.47,.29-.59-.11,.2-.41,.38-.83,.6-1.22,.11-.21,.28-.46,.51-.07-.02,.18-.03,.35-.05,.53-.04,.17-.08,.34-.12,.51h0Z"/>
  <path class="cls-1" d="M38.8,46.03c.16-.18,.32-.35,.49-.52,.06,.01,.13,.03,.19,.04v2.03c-.1-.03-.19-.06-.29-.09-.13-.49-.26-.98-.39-1.46h0Z"/>
  <path class="cls-1" d="M25.57,37.44c1.54,.22,3.09,.43,4.63,.64-.13,.02-.25,.04-.38,.06-.04,.05-.07,.11-.11,.16,.12,.06,.24,.12,.36,.17-1.68-.26-3.37-.51-5.05-.77,.18-.09,.37-.17,.55-.26h0Z"/>
  <path class="cls-1" d="M49.87,22.44c.22-.03,.44-.06,.66-.1,.09,.39,.19,.77,.28,1.16-.28,.47-.56,.95-.84,1.42-.13,.09-.27,.17-.4,.26,.09-.31,.17-.62,.26-.93,.08-.38,.2-.75,.22-1.13,.01-.22-.12-.46-.19-.68h0Z"/>
  <path class="cls-1" d="M21.37,39.77c1.78,.35,3.55,.69,5.33,1.04-.19,.09-.38,.18-.57,.27-1.78-.34-3.56-.68-5.34-1.01,.19-.1,.39-.19,.58-.29Z"/>
  <path class="cls-1" d="M22.97,60.62c1.51-.27,3.07-.39,4.53-.84,1.86-.57,3.64-1.41,5.45-2.14,.16,.09,.31,.17,.47,.26-2.38,1.65-4.96,2.74-7.84,2.99-.87-.09-1.74-.18-2.61-.27Z"/>
  <path class="cls-1" d="M41.85,44.46c-.74-.72-1.03-1.5-.77-2.43,.94,.66,1.23,1.49,.77,2.43Z"/>
  <path class="cls-1" d="M42.22,44.6c0,.26,0,.52,0,.78-.13,.13-.26,.26-.38,.39-.18-.32-.35-.64-.54-.98,.36-.07,.64-.13,.93-.18h0Z"/>
  <path class="cls-1" d="M42.04,42.62c-.26-.35-.53-.69-.79-1.04,.06-.04,.12-.08,.18-.13,.26,.34,.52,.69,.78,1.03-.06,.04-.11,.09-.17,.13h0Z"/>
  <path class="cls-1" d="M40.43,48.76c-.08,.21-.16,.42-.28,.73-.21-.35-.35-.61-.5-.86,.26,.04,.52,.09,.79,.13h0Z"/>
  <path class="cls-1" d="M51.47,49.03c.56-.04,1.12-.11,1.68-.12,1.07-.02,2.13,0,3.2,.12h-4.88Z"/>
  <path class="cls-1" d="M52.21,47.35h3.05v.07h-3.06s0-.05,0-.07Z"/>
  <path class="cls-1" d="M39.34,49.67c-.58,1.01-1.17,2.03-1.75,3.04-.06-.11-.13-.21-.19-.32,.24-.42,.49-.84,.73-1.26,.41-.61,.82-1.21,1.22-1.82,0,.12-.01,.24-.02,.36h0Z"/>
  <path class="cls-1" d="M57.34,59.08h-3.84s0-.08,0-.12c.1-.02,.2-.04,.3-.06,1.16,.01,2.32,.02,3.48,.03,.04,0,.08,.03,.12,.05-.02,.03-.04,.07-.06,.1h0Z"/>
  <path class="cls-1" d="M55.45,27.93c-.1-.05-.2-.1-.31-.15,.87-.34,1.74-.68,2.61-1.03,.19,.05,.39,.1,.59,.14-.96,.35-1.92,.69-2.89,1.04h0Z"/>
  <path class="cls-1" d="M65.86,31.36c-2.41,.73-4.8,1.49-7.22,2.17s-4.85,1.3-7.28,1.94c-.2,.05-.4,.11-.6,.17-.18-.06-.35-.12-.53-.18,.93-.3,1.86-.6,2.79-.89,4.83-1.45,9.67-2.91,14.5-4.34,.35-.1,.75-.07,1.13-.09,.12,.06,.24,.12,.36,.18-.65,.2-1.3,.39-1.94,.6-.41,.13-.81,.3-1.21,.44h0Z"/>
  <path class="cls-1" d="M70.28,29.88c-1.04,.34-2.09,.68-3.13,1.02-.18,.05-.35,.11-.53,.16-.1-.05-.21-.1-.31-.15,.37-.21,.75-.42,1.12-.63,1.1-.32,2.2-.64,3.3-.95,.04,.06,.07,.11,.11,.17-.19,.13-.37,.26-.56,.39Z"/>
  <path class="cls-1" d="M56.12,32.59c-2.98,.91-5.97,1.83-8.95,2.74-.28,.08-.57,.11-.86,.16-.09-.09-.18-.18-.27-.26,2.95-.87,5.91-1.75,8.86-2.62,.26-.08,.51-.18,.76-.27,.15,.08,.31,.17,.46,.25h0Z"/>
  <path class="cls-1" d="M55.7,14.26c.1-.19,.16-.43,.32-.57,1.74-1.58,3.63-2.95,5.93-3.73,.08-.03,.18-.03,.27-.05,.06,.09,.11,.19,.17,.28-2.3,.81-4.26,2.15-6.05,3.72-.17,.15-.42,.23-.63,.34h0Z"/>
  <path class="cls-1" d="M51.99,18.17c.27-.19,.59-.34,.81-.57,.28-.3,.48-.67,.72-1.01,.55-.69,1.09-1.39,1.64-2.08,.18-.05,.37-.09,.55-.14-.6,.78-1.19,1.56-1.79,2.34-.35,.46-.72,.91-1.05,1.39-.08,.11-.02,.3-.02,.46-.04,.18-.08,.36-.13,.54-.28,.47-.56,.93-.84,1.39,.12-.61,.24-1.23,.36-1.87-.07,.01-.22,.03-.36,.05,.04-.17,.08-.34,.12-.51h0Z"/>
  <path class="cls-1" d="M64.86,10.84c-.28,.19-.53,.41-.83,.55-.29,.14-.62,.22-.93,.32-1.76,.84-3.51,1.69-5.27,2.53-.17-.05-.34-.11-.5-.16,1.94-1.35,4.04-2.42,6.37-3.08,.37-.1,.78-.11,1.17-.17h0Z"/>
  <path class="cls-1" d="M57.32,14.11c.14,.05,.29,.1,.43,.14-1.46,1.43-2.92,2.86-4.38,4.28-.22,.19-.44,.37-.66,.56,.04-.18,.08-.36,.13-.54,.41-.48,.81-.97,1.22-1.45,1.09-1,2.17-2,3.26-2.99h0Z"/>
  <path class="cls-1" d="M53.13,22.35c-.38,.42-.75,.83-1.13,1.25-.35,.31-.71,.63-1.06,.94-.05,0-.1,0-.15,0,.14-.27,.27-.53,.41-.8,.59-.6,1.18-1.2,1.77-1.81,.05,.14,.1,.28,.16,.42h0Z"/>
  <path class="cls-1" d="M53.38,23.49c-.31,.27-.63,.53-.94,.8-.09-.13-.18-.26-.27-.39,.15-.24,.35-.52,.63-.79,.65-.64,1.37-.93,1.81-1.07,.04,.14,.09,.27,.13,.41-.14,.12-.28,.24-.42,.36-.31,.23-.63,.46-.94,.68h0Z"/>
  <path class="cls-1" d="M58.02,28.7c-2.64,1.1-5.28,2.2-7.92,3.3-.27,.11-.54,.23-.8,.35l-.27-.26c2.63-1.13,5.26-2.26,7.89-3.39,.23-.1,.46-.18,.69-.27,.14,.09,.28,.18,.42,.26h0Z"/>
  <path class="cls-1" d="M58.01,20.46c-.59,.24-1.18,.48-1.78,.72,.59-.32,1.19-.63,1.78-.95,0,.08,0,.15,0,.23h0Z"/>
  <path class="cls-1" d="M54.57,22.57c-.2-.08-.4-.16-.6-.23,1.45-.79,2.91-1.58,4.36-2.37,.2-.06,.4-.13,.61-.19-.87,.59-1.75,1.18-2.62,1.77-.58,.34-1.17,.68-1.75,1.03h0Z"/>
  <path class="cls-1" d="M51.21,23.5c-.13,0-.26,0-.4,0-.09-.39-.19-.77-.28-1.16,.89,.26,.77-.58,1.11-.93,.08,.17,.17,.34,.25,.51,0,.17,0,.35,0,.52-.22,.35-.45,.7-.67,1.05h0Z"/>
  <path class="cls-1" d="M52.98,21.93c.15-.13,.29-.25,.44-.38,.3-.23,.6-.46,.9-.68,0,.18,.02,.36,.02,.53-.4,.32-.8,.63-1.21,.95-.05-.14-.1-.28-.16-.42Z"/>
  <path class="cls-1" d="M31.7,40.81c1.14-.31,2.29-.61,3.43-.93,.32-.09,.62-.26,.93-.39,.06,.09,.11,.19,.17,.28,.05,.05,.1,.09,.15,.13-.01,.05-.02,.1-.03,.15-.32,.06-.65,.12-.97,.19-1.13,.27-2.26,.55-3.39,.83-.1-.09-.19-.18-.29-.27h0Z"/>
  <path class="cls-1" d="M36.62,40.56c.14-.63,.66-.86,1.19-1.08,.05,.05,.09,.1,.14,.16-.44,.31-.88,.62-1.32,.93h0Z"/>
  <path class="cls-1" d="M23.12,58.96h3.54v.07h-3.54v-.07Z"/>
  <path class="cls-1" d="M31.7,40.81c.1,.09,.19,.18,.29,.27-1.95,.37-3.9,.16-5.85,0,.19-.09,.38-.18,.57-.27,1.67,0,3.33,0,5,0Z"/>
  <path class="cls-1" d="M37.41,52.39c.06,.11,.13,.21,.19,.32-.09,.13-.18,.25-.26,.37-1.07,1.92-2.5,3.56-4.25,4.94-.11-.05-.21-.1-.32-.16,1.82-1.62,3.36-3.44,4.65-5.48h0Z"/>
  <path class="cls-1" d="M33.93,49.4c.13,.05,.25,.09,.38,.14-.56,.36-1.12,.73-1.68,1.09-.12-.05-.24-.09-.37-.14,.56-.36,1.11-.72,1.67-1.09Z"/>
  <ellipse class="cls-1" cx="37.11" cy="39.35" rx="1.31" ry=".93"/>
  <path class="cls-1" d="M58.72,39.97c4.13-.74,5.2-1.13,5.17-1.34-.01-.1-.27-.13-.29-.28-.04-.38,1.49-1.04,1.89-.66,.06,.06,.11,.15,.1,.24-.02,.21-.34,.39-.8,.45"/>
  <g>
    <path class="cls-1" d="M18.75,67.88c.5-.08,1.16-.16,2-.16,1.03,0,1.79,.24,2.27,.67,.44,.38,.71,.97,.71,1.69s-.22,1.31-.62,1.73c-.55,.59-1.45,.89-2.47,.89-.31,0-.6-.01-.84-.07v3.24h-1.04v-7.99Zm1.04,3.9c.23,.06,.52,.08,.86,.08,1.26,0,2.03-.61,2.03-1.73s-.76-1.58-1.91-1.58c-.46,0-.8,.04-.98,.08v3.14Z"/>
    <path class="cls-1" d="M29.17,67.78v4.79c0,1.81,.8,2.58,1.88,2.58,1.2,0,1.97-.79,1.97-2.58v-4.79h1.06v4.71c0,2.48-1.31,3.5-3.06,3.5-1.65,0-2.9-.95-2.9-3.45v-4.76h1.06Z"/>
    <path class="cls-1" d="M38.9,67.78h1.04v7.21h3.45v.88h-4.5v-8.08Z"/>
    <path class="cls-1" d="M47.42,74.59c.47,.29,1.15,.53,1.87,.53,1.07,0,1.69-.56,1.69-1.38,0-.75-.43-1.19-1.52-1.61-1.32-.47-2.13-1.15-2.13-2.29,0-1.26,1.04-2.2,2.61-2.2,.83,0,1.43,.19,1.79,.4l-.29,.85c-.26-.14-.8-.38-1.54-.38-1.1,0-1.52,.66-1.52,1.21,0,.76,.49,1.13,1.61,1.56,1.37,.53,2.06,1.19,2.06,2.37,0,1.25-.92,2.33-2.83,2.33-.78,0-1.63-.23-2.06-.52l.26-.88Z"/>
    <path class="cls-1" d="M60.66,72.07h-3.14v2.91h3.5v.88h-4.55v-8.08h4.37v.88h-3.32v2.55h3.14v.86Z"/>
  </g>
</svg>